<?xml version="1.0" encoding="utf-8"?>
<!-- Generator: Adobe Illustrator 18.0.0, SVG Export Plug-In . SVG Version: 6.00 Build 0)  -->
<!DOCTYPE svg PUBLIC "-//W3C//DTD SVG 1.1//EN" "http://www.w3.org/Graphics/SVG/1.1/DTD/svg11.dtd">
<svg version="1.1" id="Слой_1" xmlns="http://www.w3.org/2000/svg" xmlns:xlink="http://www.w3.org/1999/xlink" x="0px" y="0px"
	 viewBox="168.6 15.6 1288.4 1184.4" enable-background="new 168.6 15.6 1288.4 1184.4" xml:space="preserve">
<g>
	<path fill="#000000"    d="M1434.1,586.3c0,0,10.1-19.4,10.6-30.4
		c-1.7-0.2-9.7,8.2-10.4,10.8c-0.6,2.6-0.9,14-0.9,14s-12.5-25.7-13-28.1c-0.4-2.4-14-20.3-15.3-22.9c-1.3-2.6,0-8.2-14.2-15.8
		c0,0.2-12.1-19.4-15.3-20.5c0.2-1.5,1.7-24.8-2.4-27.9s-18.4-14-18.4-14s-1.9,0.6-2.8,6.7c-1.9,0-12.5,7.8-17.5-49.2
		c0.2-0.2,2.8-7.1-10.6-11.7c0,0.2-3-17.5-10.8-23.3c-7.8-5.8-23.5-16.2-26.6-17.9c0.2,0.2-1.1-9.9-8.6-15.8c0,0-8.6-1.3-16.8,2.2
		c-0.2,0-11.9-13.6-12.7-18.6c-0.2-4.5-0.6-16-0.6-16l-7.8-7.6c0,0,0.6-31.3-1.1-38.4c-1.7-7.1-8.2-16-11.7-21.2
		c-0.6-6.7-5.2-58.3-5.2-58.3s-13.6-14.2-18.1-16.8l-5-9.7l-5.6-2.2l-6.7,3.5l-10.8,1.1l-3.5-3.5c0,0-1.1-37.8-2.2-46
		s-5.8-19.4-9.1-20.7c1.3-2.8-1.1-12.1-1.1-12.1s-5.6-6.3-7.6-8.9c-1.9-2.6-4.3-10.6-4.3-10.6s2.8-12.1-9.7-25.5
		c-7.3,1.9-12.7,13.6-12.7,13.6s-6.5,22.9-7.8,24c-1.3,1.1-12.1,13.6-12.5,17.5c5.2,0.9,6.9,1.1,4.5,9.7c0,0-5.4,3.9-6.5,7.6
		s-4.1,24-6.3,28.1c-2.2,4.1,1.7,49.2-2.8,57.4s-8.9,36.9-13.2,42.7c-4.3,5.8-13.8,30.4-23.5,32.2c-9.7,1.7-15.8,1.3-15.8,1.3
		l-25.5-14c0,0-6-14-11-16c-5-1.9-15.3-4.3-15.3-4.3l-22.7-12.5c0,0-10.4-11-16.2-14.2c-5.8-3.2-17.1-5.2-17.1-5.2
		s-42.3-35.4-45.6-39.5s0-7.3,0-7.3l17.5-16c0,0,5.4-11.9,6-14.7c-1.3-1.9-7.8-2.2-7.8-2.2l-1.7-5.2l10.6-10.6l9.9-0.2l5.6-6.3
		c0,0-1.9-2.2-1.3-4.5c0.6-2.4,8.6-7.8,9.5-9.7c0.9-1.9,6.3-5-3-13.8c-9.3-8.9-7.1-5.4-7.1-5.4s-9.9,13.8-14.9,14.7
		c-5,0.9-9.7-13.6-10.6-16.8c0,0-11.4,9.9-19,10.4c-7.6,0.4-16.4-11-16.4-11l-20.3-0.2c0,0-1.9-6-20.7-5.2
		c-5.2-3.5-24.4-14.2-29.1-14.7c-3-3-9.5-7.8-15.3-6.5c-5.8,1.3-9.7,4.1-9.7,4.1s2.4,5.4,6.5,6.5s8.9,6.3,13.8,1.1
		c2.4,2.2,2.8,5,2.8,5l0.6,8.9l-9.3,9.7c0,0-36.9,8.6-39.5-2.2c-3.5-1.1-32.2,21.6-36.7,31.5l2.8,7.3l-2.8,6.3c0,0-5,3.9-9.9,4.3
		c-1.3,1.9-3.2,11.4-3.2,11.4s-9.7,9.5-10.4,12.5c-0.6,3,0,10.6,0,10.6s9.9,5.4,9.5,9.9c-0.4,4.5-1.1,8.6-1.1,8.6s-16.2,3-18.6,0.9
		c-2.4-2.2-6.7-5.6-13.6-4.3c-6.9,1.3-16.2,4.3-19,14.2c-0.2-3,0-14.7-1.7-19.2c-1.7-4.5-25.9-25.7-28.9-26.8s-11.4-1.3-13.8-6
		c-1.7,2.4-7.6,9.9-9.5,10.4c-1.9,0.4-15.8,1.9-17.9,7.3s0.2,6.5-2.2,7.8s-14.9,0.9-14.9,0.9s-4.1,5.2-10.8,5.6
		c-0.2,0.9-0.9,9.9,3,14.9c-0.6,2.2-10.8,3.5-13.8,2.8c0.2,3-1.9,7.8,3.5,11.7c-3.5-1.3-19.2,1.7-21.4,13.8c1.1,1.7,4.1,5.6,4.1,5.6
		l-0.2,7.8l4.1,5.2c0,0-6,3.9-17.1,3c-11-0.9-18.4,2.4-10.4,13.6c8,11.2,6,12.7,6,12.7l-6.7,1.1c0,0,1.3,8.2-3.9,10.4
		c-5.2,2.2-8.2-5.4-8.2-5.4s-8.4-19-12.1-19c-3.7,0-7.1,3.5-11.7,6.7c-4.5,3.2-9.9,9.3-11.7,19.6c-1.7,10.4,0,15.1,0,15.1l5.4,5.6
		l-0.9,5.6c0,0-21.4,26.1-23.3,29.8c-1.9,3.7-2.2,8.4-4.5,11c-2.4,2.6-13.6,14-15.8,14.9c-2.2,0.9-15.8,9.5-19.2,10.6
		c-3.5,1.1-38.6,9.7-43,11.9c-4.3,2.2-11,8.9-14.7,9.9s-14.2,4.3-14.2,4.3s1.3,11.7-43.4,13.8c-1.3,1.3-36.3,36.9-38.6,38
		c-2.4,1.1-15.3,9.3-17.1,11c-1.7,1.7-7.8,16.2-8.9,19c-1.9-1.3-5.2,0.6-6-5.2c-0.9-5.8-4.3-9.5-5.2-9.5s-8.2,11-8.6,14
		c-0.4,3-1.9,15.8,3.2,28.3c1.9,4.5,0.9,20.1,0.9,20.1l-3.2,8.2v22.7l30.4,45.6c0,0,2.8,8.9,1.3,11c-1.5,2.2-6.5,0-11-5.4
		c-4.5-5.4-9.5-8.4-9.5-8.4l-1.3,4.5c0,0,10.4,14.7,8.6,17.1c-1.7,2.4-5-0.2-5-0.2s-17.5-17.5-19.2-18.6c-1.7-1.1,3,9.9,8.4,17.1
		s26.1,28.1,26.1,28.1s8.4,14.2,7.6,20.5c-0.9,6.3,27,39.9,30,46.2c3,6.3,3.9,17.9,7.6,30c3.7,12.1,24.6,41.9,27,48.4
		c2.4,6.5,4.5,12.5,5,17.3c0.4,4.7,1.1,37.8,0,40.8c-1.1,3-2.8,9.5-14.2,9.5c-3.5,3.5-0.6,19.6,4.3,23.5c5,3.9,18.6,6.7,28.7,17.3
		c10.1,10.6,56.1,5.6,65.4-4.1c9.3-9.7,15.3-16.8,29.4-17.1c1.7,0.2,1.1-4.3,5.4-8.6c4.3-4.3,12.1-14.9,44.5-17.5s36.9,1.9,49.4-5
		c12.5-6.9,25-2.4,25-2.4s2.4,0.2,10.6-21.4c3-6.5,13-15.1,13-15.1s12.5-2.8,17.3-6c4.7-3.2,22.5-17.1,28.1-18.1s24.8-0.6,33.5-1.9
		c8.6-1.3,47.7-21.6,60.7-24.6c13-3,31.3,0,37.6-1.9c6.3-1.9,23.5-3.9,28.3-3.2c2.8,2.2,12.1,14,19,16.4c8.4-1.1,26.8,1.7,34.1,6
		c3.5-0.9,6.5-3.5,6.5-3.5s18.4,15.3,19.4,18.1c1.1,2.8,0.6,15.1,3.9,17.9c3.2,2.8,7.8-1.1,14.9,13.6c3.2,4.3-1.3,2.2,9.3,11.9
		c5.2,4.5,8.2,21.2,8.4,22.7c0.2,1.5-3,10.6-3,10.6s7.6,4.3,9.9,4.3c2.4,0,8.9-2.4,8.9-2.4l-0.9-7.8l20.7-22.5l18.6-8.2l6-18.1
		c0,0,8.9-13.2,10.4-14c1.5-0.9,5.4,20.1,2.4,26.8s-11.4,14.9-11.4,24c0,9.1,2.2,16.2-1.1,20.1c-3.2,3.9-11.4,5-12.5,7.3
		s-1.9,5.2,2.2,6.3s18.1,0,20.7-7.1c2.6-7.1,0-22.2,6.7-25.7c3.5,1.7,13.6,21.2,13.6,24.6c0,3.5-7.1,23.7-7.1,23.7s14,3.2,18.6-1.3
		c4.5-4.5,5.6-6,9.9-5c4.3,1.1,1.1,6.5,1.1,6.5l-5,0.2c0,0,9.9,11.9,14.2,26.1s6.3,23.3,5.2,25.5c-1.1,2.2-5.4,4.1-5.4,4.1
		s10.8,24.4,17.5,28.7c7.3,1.3,22.5,12.5,25.5,16.4c6-1.1,17.3-0.2,21.6,1.3c4.3,1.5,34.8,17.5,34.8,17.5s11.4,0.6,14.2-2.4
		s20.3-12.7,21.6-13.8c1.3-1.1-2.2-3.9-2.8-4.5c-0.6-0.6,10.6-3.9,10.6-3.9l5.6,3.5l-4.3,8.2l-5.4,0.2l3,3.5h7.3l6.3-3.2l-0.2,7.1
		c0,0,16.2,17.5,17.9,18.6c1.7,1.1,7.1,3.5,7.1,3.5s3.2-8.6,5.6-9.7s9.5,0,9.5,0s17.1-17.9,26.8-21.2c9.7-3.2,38.6-8.4,53.8-5.2
		c2.8-1.1,11.4-7.1,13-16c1.5-8.9,5.4-39.5,14-49.4c8.6-9.9,12.1-14.9,17.9-23.5s3.2-7.6,5.2-15.3s28.9-52.9,33.7-56.3
		c4.7-3.5,23.3-16.2,25.5-19.4c2.2-3.2,17.1-32.6,18.6-37.3c1.5-4.7,19.6-69.9,27.6-78.6c3-3.2,1.1-28.3,0.6-33.2
		c-0.4-5-2.8-36.9-1.1-48.8C1433.3,597.1,1434.1,586.3,1434.1,586.3z"/>
	<path fill="#000000"    d="M933.5,886.4c-3.2,1.7-11.7,1.7-12.1,2.4
		c-0.4,0.6-4.3,6.3-4.3,7.6c0,1.3-0.6,1.9,1.3,3.9c0,0,1.3-1.7,7.1-1.7c5.8,0,7.8,3,11.9,1.7c4.1-1.3,15.3-6.3,15.8-6.9
		C950.7,887.7,936.7,884.9,933.5,886.4z"/>
	<path fill="#000000"    d="M1216.1,1092.4c-2.4,1.3-10.6,0.6-18.4,3.9
		c-7.8,3.2-20.7,2.8-25,0c-4.3-2.8-17.5-13.6-22.7-15.1c-5.2-1.5-13.8,0.6-15.3-2.4c0,0-3.9,3.5-4.1,6.3c-0.2,2.8-0.9,21.8,16,47.1
		c3.9,6-0.2,7.8-1.3,8.9s-0.6,12.7,9.7,27.6c10.4,14.9,20.5,20.3,26.8,20.7c3.9-5,14.2-14.7,14.2-14.7l-1.3-6.3l5.6-3.2l9.5,3.5
		c0,0,2.8-4.3,5.6-14.9c2.8-10.6,11.7-28.1,13-31.5c1.3-3.5,2.8-21.4-1.3-27.9S1218.4,1091.1,1216.1,1092.4z"/>
	<path fill="#000000"    d="M932.2,126.3c-6.3,2.4-8.6,12.5-7.8,16.8h13.2
		C937.6,142.9,938.4,123.9,932.2,126.3z"/>
	<path fill="#000000"    d="M718.4,54.8c0.9-1.9-4.5-10.4-8.2-9.7
		s-7.6,5.4-8.2,8.6c0,0,1.9,1.1,3.9,1.1C707.9,54.8,717.6,56.5,718.4,54.8z"/>
	<path fill="#000000"    d="M723,53.1c8.2,5.6,13,3.9,13,3.9s16.2-8.9,16.2-9.5
		s0-9.7,0-9.7s-12.1,1.9-17.3,2.8c-5.2,0.9-16.4-2.8-16.4-2.8S715,47.5,723,53.1z"/>
</g>
</svg>
