<?xml version="1.0" encoding="utf-8"?>
<!-- Generator: Adobe Illustrator 18.0.0, SVG Export Plug-In . SVG Version: 6.00 Build 0)  -->
<!DOCTYPE svg PUBLIC "-//W3C//DTD SVG 1.1//EN" "http://www.w3.org/Graphics/SVG/1.1/DTD/svg11.dtd">
<svg version="1.1" id="Слой_2" xmlns="http://www.w3.org/2000/svg" xmlns:xlink="http://www.w3.org/1999/xlink" x="0px" y="0px"
	 viewBox="122 0 1007 850" enable-background="new 122 0 1007 850" xml:space="preserve">
<path fill="#000000"    d="M597.3,56.1c0.6-0.8,0.9-2.4-0.4-2.6
	c-0.5-0.1-1.7,1.5-2,1.8c-1.8,2-2.4,2.5-4.8,3.3c-1.8,0.6-4.4,2-6.4,1.3c-3-1-2.2-3.2,0.8-3.1c0-1.4-1.7-1.8-2.9-2.1
	c-0.3-2.1,2.4-7.5-2.2-6.3c-1.3,0.3-2.2,3.3-3.4,0.9c-0.7-1.3,0.8-4.3,1.9-5c1.6-1.1,2.9,0.1,4.6-0.1c2.5-0.2,1.9-0.9,3-2.6
	c0.9-1.4,0.7-2.1,3-2.1c2.5,0,4.7,1.2,7.3,0.8c0.2-1.1,0-2-0.6-2.8c-0.9-1.3-2.1-0.8-2.8-1.5c-2.4-2.4,0.8-4,1.7-6.2
	c2.7-0.4,7,6.7,8,1.2c0.5-2.4-1.5-3-1.6-4.8c-0.2-2.7,3.2-2.4,5.1-1.7c1.2-1.6-0.8-2.7-0.9-4.2c-0.1-2.2,1.8-3.3,3.8-3.4
	c1.9-0.1,8.5,3.3,7.7-1.3c-0.3-1.8-2.5-1.4-2.9-2.6c-0.7-2.2,2.5-2.1,3.8-2.1c1.8,0.1,2.8,0.7,4.7-0.1c1.3-0.6,2.5-1.5,3.7-2.1
	c2.9-1.6,5.8-2.1,9.1-2.5c0.8-0.1,1.8,0.2,2.5-0.1c0.5-0.2,0.7-1.1,1.3-1.3c1.7-0.6,2.3-0.3,1.7,2.1c-0.3,1.2-2.2,2.6-0.7,3.8
	c1.3,1.1,3.2-0.6,3.8-1.6c0.7-1.3-0.2-3.3,0.7-4.4c1-1.2,3.6-0.7,4.8-0.2c1.7,0.7,2.7,2.3,4.3,2.9c1.7,0.7,3.4,0.1,4.8,1.6
	c2.1,2.2,2,8,1.2,10.8c-0.9,3-3.4,5.7-5.9,7.8c-2.4,2-6.7,4-7.7,7c1.6,1.8,5.4-4.4,6.7-1.1c0.8,2.1-4.2,3.8-4.7,5.8
	c-1.1,3.8,3.8,3,5.4,0.6c1.6-2.5,1.3-5.6,3.4-8.1c2.1-2.6,5.2-1.6,4.6,2c-0.4,2.3-2.4,5.2-3.1,7.6c-0.8,2.6-0.7,5.7-1.5,8.3
	c-0.9,2.7,0,7.5-1.5,9.7c-1-0.6-2.6-0.8-3.2,0.5c-0.8,1.7,1.4,2,1.1,3.4c-0.4,2.4-4.9,1.9-4.1,5.5c1.8,0.5,4.6-3.5,5.9-0.8
	c0.6,1.3-1,2.3-1.2,3.4c-0.3,1.3,0,2.9-0.1,4.2c-1.8,0.5-4.2,0-5.9,0.8c-3.2,1.5-0.3,2.8-0.5,5.1c-2.3,0.6-3.5,2.3-5.4,3.2
	c-2,0.9-2.7,0.2-3.9,2.5c-3.2,6.1,4.7-0.4,6.8,0c1.3,0.3,3.8,2.4,2.5,4.2c-1.1,1.5-4.2-0.5-5.9,0.1c-1.9,0.6-3.2,2.7-0.9,3.8
	c2.4,1.1,3.4-1.6,4.3,2.1c1.1,0.3,2.2-0.2,3.3-0.3c0.5,0.9,1.6,2.4,1.7,3.4c0.3,3.2-1.5,1.1-2.4,2.6c-1.2,2.1,3.7,2.4,2.8,5.8
	c-2.5,0.1-4.5,0.7-5,3.4c1.8,1.6,8.4,0.7,3.3,3.6c-2.9,1.7-4.8,2.4-8,2.1c-0.2,2.7,0.1,4.6,1.1,6.9c1.1,2.6,1,3.1-1.3,4.9
	c-1.6,1.3-3.8,2.5-5.9,3.1c-2.6,0.7-3.7-0.2-5.9-1.4c-2.5-1.4-4.2-1.4-3,2.1c1,3,1.4,3.6,4.5,2.5c1.1-0.4,1.6-0.8,3.1-0.7
	c1.9,0.1,2,0.2,3.5-0.4c1-0.4,0.8-2.2,2-0.4c0.5,0.7,0,3.3,0.1,4.2c1,0.6,2,1.7,3.3,1.3c0.9-4.4,4.2-1,4.3,1.8
	c0.2,2.9-1.2,5.2-2.9,7.3c-1.4,1.8-3.6,5.5-5.6,6.7c-4.1,2.7-1.8-4.4-2.3-6.4c-2.1-0.2-4.5-0.4-6.3,0.5c-2.2,1.1-1.7,4.3-3.4,4.9
	c-1.2,0.5-1.9-1.1-3-1.2c-0.6-0.1-2.8,0.3-3.4,0.4c-2,0.6-3.2,1.9-3.1,4.2c-2,1.4-4.1-0.3-5.9-1.3c-3.4-2-4-0.5-7.2,0.6
	c-2.1,0.8-5,1.2-7,0c-1.3-0.8-3.9-4.7-4.7-1c-1.7,0.3-3.5-3.2-3.4-4.6c0.3-3.3,2.9-1.9,4.7-1.8c0.6-3,2.1-7.1,5.3-8.4
	c1.3-0.5,3.4,0.4,4.3-1.4c0.9-1.9-1.3-3.9-3-2.6c-0.6-1.5-0.8-2.6-1-4.2c-0.1-0.9,0.3-1.5,0.1-2.2c-0.1-0.4-0.9-1-1-1.6
	c-0.7-3.8,3.4-3.9,5.7-2.7c2.7,1.5,2.5,4.2,4.5,6.2c2,2,5.6,1.6,7.9,0.8c2-0.7,6.4-3.3,4.2-6.1c-1.7-2.2-3.7,2.6-6,2.6
	c-2.6,0-4.3-2.8-4.7-5.1c-0.3-1.5,0.7-3.3-0.7-4.4c-1.4-1.1-2.1-0.2-2.8,1.3c-1.3-0.6-1.1-3.1-2.5-3.4c-1.3-0.3-2.4,2.1-3,3
	c-2.7-0.6-1.4-6.3-0.8-8.4c0.2-0.5,1.1-0.7,1.2-1.3c0.2-0.9-0.5-1.5-0.5-2.1c0-2.2,0.3-2.7,2.1-3.4c0.8-0.3,1.6,0,2.5-0.5
	c0.6-0.4,0.8-1.3,1.3-1.6c2-1.5,1-0.7,3.1,0c1.6,0.6,7.3,2.7,8.9,2c2.2-0.9,3.9-6,1-6.8c-2.8-0.8-5.9,3.4-8.7,0.1
	c-1.9-2.2-1.5-5.8-3.6-8.3c-2.2-2.7-5.6-3-7-6.2c-0.9-1.9-3-6.9-2.1-8.7c1.1-2.4,6.4-2,8.5-1.1c1.4,0.6,2.5,1.8,3.6,2.8
	c0.5,0.4,1.4,1.5,2,1.8c0.5,0.3,2,0.6,2.2,0.8c1.4,1.2,0.8,3.2,2,4.3c1.3,1.3,3.5,0.5,3.5-1.3c0.2-4.4-14.6-11.2-6.4-13.2
	c2.4-0.6,2.6-0.1,4.4-2.1c1-1.1,2-2.2,2.9-3.4c1.3-1.9,5.4-5.7,3-7.7c-2.4-2-2.8,0.5-3.4,1.7c-0.7,1.4-1.7,2.3-2.9,3.5
	c-1.8,1.8-4.7,5.3-7.3,4.1c-1.7-0.8-1.1-3.3-3.1-0.8c-1.3,1.6-0.5,2.8-3.4,3c-1.4,0.1-4.6,0.4-5.6-0.7c-1-1.2,0.4-4.5-2.5-3.9
	c-0.3,2.9,0.1,4.3-3.5,4.2c-2.2-0.1-4.4-1.4-4.3-3.8c0.2-3.1,3-2.3,5.1-3c2-0.7,3.6-2.5,5.5-3L597.3,56.1L597.3,56.1z"/>
<path fill="#000000"    d="M584.1,123c-0.4-2,1.1-4,2.9-4.6c0.6,0.7,1.1,1,1,2
	c2.2,0.1,1-3.2,3.7-2.4c0.7,1.3,0,3,1,4.1c1.3-0.8,0.7-3.1,0.7-4.5c0-2.2,0.3-2,1.3-3.8c-1.2-1.6,1.4-6.8,2.6-8.2
	c1.7-1.8,5.8-1.6,6.3-4.6c-0.9,0-1.9-0.1-2.9-0.1c0.4-2.3,3.4-2.3,3.4-5c0-3.1-2.9-4-5.2-3.9c-2.1,0-1.6,0.9-3-0.6
	c-0.9-0.9-1.2-2.7-1.2-4c0-2.1,0.5-6.2-3.3-6c-0.3-1.8,2.5-8.5-1.3-7.5c-0.8,1.8,0.4,5.7-1.8,6.3c-2.5-1.8-0.5-5.2-2.4-6.9
	c-1.2-1.1-1.9-0.2-3-0.8c-0.6-0.3-1.9-1.6-2.2-2.1c-2.1-3.9-2.2-9.4-6-12.8c-1-0.9-5.7-2.4-6.6-0.4c-1.1,2.5,4.9,1,2.8,4.5
	c-1.7,2.8-4.7-0.8-6,2.1c-1.3,2.8,1.7,4.2,3.7,5.1c0.5,2.3-1.5,3.3-3.3,3.8c-2.5,0.6-3.5,0.2-3.4,3.4c0.2,4.6,5.2,4.6,5.9,8.4
	c-2.3,3.3-4-2.5-6.3-1.6c-2.6,0.9-1,6.3-0.1,7.8c0.6,0.9,1.8,1.4,2.3,2.3c1.3,2.1,0.3,1,0.2,3.1c-0.1,2.8,4.4,7.8,4,2.2
	c2.1,0,2.2,1.8,4.5,0.3c1.1-0.8,2.3-3.7,4.4-1.6c0.9,0.9,0.6,4.8-0.5,5.5c-1.9,1.2-3.8-0.9-6,0.8c-4.2,3.3-0.6,6.8,1.7,10
	c0.6,0.8,0.3,1.7,1.4,2.1c1.2,0.5,2-1,3.1-0.2c2,1.6-0.9,3.3-0.5,5.2c2.5,0.8,3,3.6,6.3,3.1L584.1,123L584.1,123z"/>
<path fill="#000000"    d="M551.2,90.6c-0.2,0.7,0.3-0.1,0.3-0.1
	c2.1-1.5,1.6-10.1-2.1-10.2c-5.2-0.1-2.2,7.4,0,9C549.9,89.7,551.4,90.1,551.2,90.6z"/>
<path fill="#000000"    d="M583.2,134.5c-2.3,3,3.6,10.6,6.5,6.9
	c2.5-3.2-2.7-8.8-4.8-8.6C584.3,132.9,583.6,134.1,583.2,134.5z"/>
<path fill="#000000"    d="M573.8,131.6c-1.4-2.3-15.7-2-13.6,4.2
	c1.8,1,3.9,1.6,5.9,1.8c2,0.2,4.1,0.8,6.3,0.8c-0.1-0.9,0.2-1.9,0.5-2.5C573.4,134.8,574.4,132.5,573.8,131.6z"/>
<path fill="#000000"    d="M552.5,109.4c-1.2,0.6,1.7,2.6,1.8,3.8
	c0,1.5-2.2,2.2-2.2,3.9c-0.1,3.7,5.8,3.1,5.1,6.8c-4.7,0.1-2.8,5.5,0.9,5.6c1.4,0,3.2-1.1,4.7-1.3c2.5-0.4,3.9-1.1,2.9-4.2
	c-0.8-2.6-1.5-1.8-0.8-4.8c0.5-2,0.6-2.9-1.3-4.4c-1.2-0.9-2.8-1.4-4-2.3c-0.6-0.5-0.6-1.3-1.3-1.7c-0.7-0.5-1.9-0.6-2.9-0.9
	C554.8,109.5,553.2,109,552.5,109.4z"/>
<path fill="#000000"    d="M546.5,117.9c-0.5,3.3,3.6,7.9,0.6,10.8
	c-4.1,4-5.6-3.7-6.5-5.7c-1.7-3.8-6.2-3.3-9-5.1c-0.8-0.5-0.1-1.1-1.7-1.3c-0.8-0.1-1.8,1.1-3,0.9c-2.1-0.4-3.1-3.2-2.1-5.1
	c2.7-1.6,3.6,1.8,5.9,1.2c2.3-0.6,1.9-3.4,1.2-4.6c-0.4-0.7-1.2-1.1-1.7-1.7c-0.5-0.6-0.8-2.2-1.2-2.7c-1.5-1.8-3.3-0.2-4.7-2.5
	c-3.5-5.7,3.5-5.7,7.3-6c2.7-0.2,3.3-0.3,3.7,2.6c0.3,1.8-1.2,5.6,0.8,6.2c1.4-0.8,1.6-2.4,1.9-3.7c1.9,0.4,1.9,1.9,2.6,3.3
	c0.9,1.8,1.2,2.1,2.9,3.1c3.1,1.8,4.5,3.6,3.9,7.7C547.3,116,546.6,117.2,546.5,117.9z"/>
<path fill="#000000"    d="M536.7,127.3c-3.6-1.2-6.7,1.1-2,3.7
	c0.9,0.5,3.6,1.6,4.6,1c1.6-0.9,0.8-2.8-0.4-3.4C538.3,128.3,537.3,127.5,536.7,127.3z"/>
<path fill="#000000"    d="M520.9,134.5c-1-1.7,0.8-7.4-2.5-6.9
	c-2.9,0.5-1.6,5.5-1.3,7.3c0.4,2.1,1.1,5.1,3.5,5.9c3.4,1.2,5.2-4,2-5.4C522.2,135.2,521.2,135,520.9,134.5z"/>
<path fill="#000000"    d="M524.3,152.9c-1.5-0.6-4.9-0.7-5.6,1.3
	c-0.5,1.3,2,4.6,3,5.1c1.4,0.8,4.3,0.8,5.6-0.4c1.3-1.2,1-3.4-1.3-4.3C525.5,154.4,524.9,153.1,524.3,152.9z"/>
<path fill="#000000"    d="M521.4,161c-0.2-0.2-0.1-0.5-0.4-0.5
	c-4.6,2.3,3.4,7.5,4.3,4c1.7-0.2,4.6,1.2,4.6-1.8c0-2.2-2.8-2.9-4.7-2.6C524.2,160.3,522.1,161.6,521.4,161z"/>
<path fill="#000000"    d="M526.9,167c-3-0.1-3.2,2.1-2.4,2.8
	c1.2,1.1,6.8,0.8,5.4-1.5C529.5,167.5,527.7,167,526.9,167z"/>
<path fill="#000000"    d="M535.4,153.3c-0.4-0.1-0.6-0.1-0.4-0.4
	c1.4-2.2,3.6-2.8,5.9-3.4c2,2.4-3,5.5-4.7,4.6C536,154,535.7,153.4,535.4,153.3z"/>
<path fill="#000000"    d="M520.1,176.3c0.2,2,1,4.1-0.1,5.9
	c-0.9,1.5-3.5,1.9-5,1.4c-2.7-0.9-1.6-1.9-0.4-3.5c1.3-1.8,1.9-2.7,2.7-4.9c0.5-0.1,1.2-0.3,1.6-0.1
	C519.2,175.3,520,175.9,520.1,176.3z"/>
<path fill="#000000"    d="M535.4,169.9c-2.1,1.2-5,0.3-7.2,1.4
	c-2.7,1.3-4,5-0.9,5.9c2.5,0.7,5.4-0.5,7.3-1.6c1.6-0.8,7.2-4.4,6.3,0.3c-0.3,1.8-3.2,3.1-4,5.1c-1.1,2.6-1.5,5.7,1.4,6.8
	c3.3,1.3,13.3-0.5,14-4.6c-0.4-1.2-1.8-4-0.2-4.3c0.3-0.1,0.5,0.4,0.7,0.3c2.7-0.5,1.4-3.8,0.7-5.8c-0.8-2.7,0.2-3.9,0.5-6.5
	c0.3-2.6-1.8-11.7-5.6-10.8c-1.3,0.3-0.6,2.2-2.4,1.7c-1-0.3-0.9-1.9-1.5-2.5c-2-2.1-3.8-1.1-4.9,1.4c-1.2,2.7-0.1,3.4,1.1,5.5
	c1.1,1.9,0.9,3.8,1.3,5.8c-4.3,1.4-4.2-7.7-6.5-9.7c-2.7-2.4-3.3,1.5-3.3,3.8c0,2.4-0.1,4.7,2.6,5.5"/>
<path fill="#000000"    d="M558.5,155.5c-0.6-0.9-1.5-2.7-1.7-3.8
	c-0.7-4.9,4.4-4.5,7.7-4.3c1.6,0.1,3,0.1,4.4,0.7c0.7,0.3,1.1,1,1.7,1.3c0.7,0.3,1.9,0.2,2.5,0.5c2.7,1.5,1.2,6.5,5.2,5.7
	c1.6-0.3,2.3-2,4.2-1.8c1.4,0.2,2.7,1.7,3.7,2.7c1.6,1.5,5,3.9,4.3,5.8c-0.9,2.1-7.2,5-2.9,6.5c4.3,1.5,5.4-1.2,6.9,3.8
	c0.3,1,1.2,4.5,2.1,5.1c2.1,1.2,3.2-1.7,3-3.3c2-0.4,2.9,1.4,5.1,1.1c2.1-0.2,3.1-2.1,5-0.2c1,1,1,4.1,3.1,1.6c1-1.2,0.2-3.1,2-4.4
	c1.3-0.9,3.4-1.1,4.9-1.9c0.9-0.5,1.2-0.2,2.1-0.9c1-0.9-0.2-1.3,1.7-2.1c1.7-0.7,3.8-0.4,5.5-1.3c1.9-0.9,2.1-2.7,4.6-2.1
	c-0.8,5.8,7.4-1,7,5.4c2.3,1.6,4.8-0.7,4.6,3.1c-0.1,2-2.4,4.8-1.2,6.7c0.9,0,1.6,0.2,2.4-0.3c3.5,1.5,0.9,4.5-2,4.3
	c-0.7,2.1,0.1,4.1-0.6,6.3c-1.9,0.5-3.8,0.1-5.4,1.4c-2,1.7-2.1,3.8-5.2,1.5c-0.6-0.4-0.5-2.1-1.9-2.4c-1.2-0.3-1.9,0.5-2.8,1.3
	c-1.4,1.2-1.9,3.8-3.9,4.2c-1.3,0.2-1.9-0.8-3-0.9c-1.1-0.1-1.8,0.5-2.7,0.8c-2,0.7-3.3,1.2-5.5,1.4c-2.3,0.1-4.6-0.2-6.8,0
	c-2.2,0.2-4.7,1.1-6.7-0.1c-0.1-2.3,2.1-4.8-2.2-4.3c-2.9,0.4-1.8,2-3,4.3c-1.6,0.4-2-0.5-3.2-0.9c-1.6-0.5-1.9-0.4-3.5-0.3
	c-2,0.2-2.7,0-3.9-1.3c-0.7-0.7-2-2.3-2.5-3.1c-1-1.5-0.4-2.1-0.6-3.4c-0.3-1.8-0.8-1.5-1.7-2.8c-2-2.7,0.1-4.5,0.5-7.4
	c0.4-2.2-0.3-7.1-1.4-8.9c-0.6-1-1.9-1.1-2.6-2.1c-0.6-0.9-0.7-2.8-0.8-4c0-1.4,1.3-2.6-0.8-3c-1.5-0.3-2.2,1.5-3.4,2.2
	c-1.8,0.9-5.8,1.9-7.6,0.8C561.4,161.5,559.6,157.3,558.5,155.5z"/>
<path fill="#000000"    d="M567,168.7c-0.1-0.3-0.1-0.6-0.4-0.5
	c-2.4,0.4-1.3,5.1,0.8,6.2c2.7,1.3,5.6-2.4,3.4-3.9c-0.5-0.3-1.5,0.1-2.1-0.1C568.1,170.2,567.2,169.2,567,168.7z"/>
<path fill="#000000"    d="M559.7,175.9c-1.9-2.4-3.6,3-3.3,5.1
	c1.8,0.4,3.2-2.4,3.3-3.8C559.8,176.9,559.9,176.2,559.7,175.9z"/>
<path fill="#000000"    d="M563.6,178.9c-1.8,0.8-3.7,3.3-4.8,5
	c-1.7,2.6-2,3.1,0.2,5.1c2.9,2.7,5.4,7.4,9.7,7.4c5.8-0.1,4.7-6.8,4.7-11.1c0-2.3,0.1-4.3-1.8-5.9c-1.5-1.3-4.5-0.9-5.1-3
	c-1-0.1-0.8,0.5-1.2,1.2C565,178.1,564.1,178.7,563.6,178.9z"/>
<path fill="#000000"    d="M507.6,112.3c-0.8,4.4-4.9-0.3-7.1-1.3
	c-2.7-1.2-1.4,0.8-3.9,1c-1.2,0.1-2.1-1.2-3.1-1.6c-0.9-0.4-3.2-0.3-3.8-1.3c-1-1.4,0.2-2.7,1.8-2.2
	C491.5,106.8,510.9,94.5,507.6,112.3z"/>
<path fill="#000000"    d="M482.1,111.5c2.4-0.3,4.9,4.8,2.1,7.6
	c-4.9,4.8-5.5-1.7-5.1-4.6C479.3,113.5,481.1,111.6,482.1,111.5z"/>
<path fill="#000000"    d="M503.8,118c-0.7-1.9-4.7-2.1-6.3-2.2
	c-4.3-0.3-11.2,0.6-10.7,6.3c-0.8,0.2-2.2,0.4-2.5,1.3c-0.7,2,1.4,2.1,2.1,3.4c0.6,1.3-0.2,2.5,0.9,3.8c1.4,1.7,2,1,3.8,0.7
	c1.9-0.2,5.7-0.3,7-1.9c2.2-2.5-0.7-3.6-1-5.7C497,123.9,504.7,120.5,503.8,118z"/>
<path fill="#000000"    d="M477.9,136.3c-1.3,0.1-7.6,1.3-3.4,4.2
	c2.2,1.5,7.1,0.1,6.3-2.4c-0.2-0.6-1.1-0.7-1.6-1C478.8,137,478.2,136.2,477.9,136.3z"/>
<path fill="#000000"    d="M455.3,145.6c-4,0.2-6.9,4.5-10.6,5.6
	c-0.1,1.6-0.4,3.8,1.2,4.7c2.3,1.3,3.4-1.3,4.6-2.7c2-2.3,6.8-3.9,6.1-6.8C456.4,146.1,455.6,145.6,455.3,145.6z"/>
<path fill="#000000"    d="M458.7,143.1c-1.2-0.4-0.9-4.3-0.4-5.6
	c0.5-1.5,2.9-2.4,2.2-4.3c-1.6-4.4-5.3,3.7-6.1,4.6c-0.8,0.9-2.4,2.3-3.4,3c-0.7,0.4-1.4,0.6-2.1,1c-0.3,0.2-0.5-0.7-0.8-0.5
	c-0.6,0.4-0.4,0.9-0.9,1.4c-1.1,1.1-1,3.3-3.4,3c-1.9-0.3-2.8-2.6-2.6-4.2c-2.1-0.4-3.1,0.9-4.9-0.6c-0.7-0.6-0.3-1.5-1-1.9
	c-0.7-0.4-2.4-0.1-3.3-0.2c-1.6-3,0.9-6.5,3.8-7.2c4-1,6.6,3,6.9-2.5c1.7-1.1,3.2,0.4,5.1-0.1c1.2-0.3,2.9-1.6,3.8-2.5
	c2.4-2.2,4.7-4.3,7.3-6.4c4.1-3.3,4.4,3,8.7,1.1c2.2-1,2.5-2.6,4.1,0.1c0.8,1.4,1.5,3.9,1.1,5.5c-0.8,0.3-2.8,0.6-3.3,1.4
	c-0.7,1.3,1,2.8,0.9,4.1c-0.2,2.1-1.4,0.7-2.4,2.1c-0.7,1-0.3,3.1-0.4,4.3c-3.3-0.3-4.9,1.2-7.2,3.5
	C460,142.6,459.1,143.2,458.7,143.1z"/>
<path fill="#000000"    d="M480,151.6c-1.2-1.7-3.5,0.3-5-1.4
	c-1.4-1.6,0-3.5-0.6-4.9c-1.4-3.1-7.9-2-8.1,1.5c-2,0.6-3.9,0.5-5.4,2.3c-2.4,3,0.5,2.4,2.4,3.4c0.8,5.3-11.1-1.5-8.8,5.4
	c0.8,0.2,7.2,1.4,3.8,3.1c-2,1-4.3-2.6-6.4-2.2c-3.2,0.6-2.2,3.7-0.7,5.5c1.5,1.8,3.3,2.5,5.4,3.2c-0.5,6.5,10.6,6.1,9.9,1.3
	c2.9-0.5,1.2,2.3,2,3.4c1.1,1.4,3,0.7,4.7,0.8c3.1,0.3,6.7,3.7,8.2-0.8c2.6-0.8,2.6,2.6,1.5,4.1c-1,1.4-4.4,1.8-5.9,1.8
	c-3.1,0-9.5-3.9-9.9,0.8c-1.1,0.1-2.2,0-3.3,0.1c-1,2.7,0.6,5.5,2.8,7.3c2.8,2.3,5.7,1.5,8.7,0.4c1.5-0.5,2.8-0.9,4.2-1.4
	c1.2-0.4,3-2,4.2-2.2c2-0.3,2.3,1.2,4.3,0.4c1.4-0.6,2.1-3.2,3.8-2.9c0.7,0.1,2,2,2.7,2.4c1.8,0.9,3.4-0.3,5,0.2
	c0.7,0.2,1,1.3,1.8,1.6c0.7,0.2,1.7,0.1,2.5,0.1c1.7-0.1,3-0.3,4.2-1.8c1.7-2.3,2-5.6,3.2-7.9c1.6-3,4.1-5.1,2.9-8.6
	c-1-2.8-3.4-5-6.1-3.9c-1,0.4-1.9,2.3-3.2,1.8c-0.6-0.2-0.7-1.7-1-2.1c-0.8-0.8-1.3-0.7-2-1.3c-1.2-0.9-2.3-1.3-1.8-3.1
	c0.2-0.6,1.3-1,1.5-1.9c0.3-1.2-0.1-0.9-0.4-1.9c-0.6-2.1-1-2.4-0.4-4.5c0.3-1.3,1.6-3.2,0.4-4.5c-1.7-1.9-5.4,1.8-7,3
	c-3.2,2.4-3.7,4.3-0.6,6.8c1,0.8,2.6,1.4,2.5,3.1c-0.2,2.3-2.3,1.2-3.3,2.2c-3.5,3.2,3,3.8,2.9,6.7c-0.2,4.4-7.4,2.5-9.4,1.3
	c-1.9-1.2-2.7-2.4-3-4.7c-0.3-1.8,0.9-4.8-2.1-4.3c-0.5-2.3,2.6-2.7-0.1-5.5C480.4,153.3,480.3,152.1,480,151.6z"/>
<path fill="#000000"    d="M820.7,286.9c-2.2-1.8-5.5-2.9-7.9-1.2
	c-2.3,1.6-4,5.7-7.4,5c-0.2-2.5,0.5-5,0.2-7.6c-2.9-1.9-4.4,7.2-8.2,6.3c0-2.2-2.3-6.1-4.2-7.4c-1.3-0.9-3.2-1.6-4.7-1.1
	c-1.3,0.4-2.2,2.1-3.5,2.1c-0.2-2.2,0.4-4.1,0.2-6.3c-1.7-0.6-5.7,4.6-6.1,6.3c-1.2,0.4-2.8,1-4,0.6c-0.4-1.4-3.4-1.6-4.5-2.2
	c-2.4-1.3-0.5-2.5-1.9-4.2c-1.4-1.7-3.1-0.8-4.9-0.1c-0.9,0.3-1.5,1-2.2,1.3c-0.9,0.4-1.5-0.3-2.4,0.6c-1.5-2.1-3.4-2.2-5.5-1.9
	c-2.6,0.4-4-1.5-1-2.5c2.1-0.7,5.4-0.8,4.1-3.8c-0.8-1.7-2.8-3.5-4.1-4.9c1.7-1.6,4.4-0.5,6.5-1.3c1.6-0.5,3-3.8,1.5-5.1
	c-1.2-1-5.5,0.2-6.7,0.8c-2.1,1.1-3.4,1.6-6,1.3c-1.5-2.7-0.1-5.5,2.5-7c0.9-0.5,3.3-0.8,3.2-2.2c0-0.6-2-2.2-2.5-2.6
	c-1.7-1.5-5.1-3.9-6.8-1.5c-0.8,1.2-0.1,2.8-0.9,3.9c-1.2,1.8-2.8,0.8-3-1c-2.2-1.5-3.1,2.8-4.3,3.9c-2.8,2.3-2.4-2.1-1.8-3.7
	c0.9-2.3,3-4.1,4.8-5.8c0.4-0.4,2.2-1.4,2.3-1.9c0.2-1.3-1.9-1.1-2.8-1.2c-1.4-0.1-3.1,0.3-4.5,0c-1.4-0.3-1.9-1.1-3.2-0.6
	c-1.4,0.6-0.8,1.9-1.7,2.8c-1.3,1.3-1.6-0.3-1.9-1.6c-0.1-0.5,0.7-2.8-0.9-1.5c-1.1,0.9,0.3,2.6-1,3.5c-3,2.2-2-4.5-2.3-5.5
	c-0.5-1.8-2.1-2.1-3.8-1.9c-1.1,2.1,0.5,3.7,0.3,5.6c-0.6-1-2.4-1.4-3.1-0.4c-0.9,1.1,0.9,1.8,0.5,3.1c-0.3,1-2.8,1.9-3.7,1.3
	c-1-0.7-1.1-2.7-1-3.8c0.1-2.7,4.4-4.8,3.5-7.4c-0.6-1.7-5.5-2.7-7-2.8c-0.6,1.7-1.7,2.2-2,4.1c-0.3,1.7,0.2,4.7-2.2,4.4
	c-0.8-2.4-2.9-3.3-4.5-5.1c-1.3-1.5,0-5.7-2.8-5.1c-1.3,2.6-2.6,5.3-6.1,4.5c-0.6-2.3,2-3.9,2.6-6c0.9-3.2-1.9-3.3-4.6-3.3
	c-1.5,0-2,0.6-3.2-1c-0.7-0.9-0.8-2.5-1.8-3.3c-1.8-1.3-5.1-0.2-7.1-0.9c-0.9-0.3-1.7-1.3-2.6-1.5c-1.2-0.3-3,0.2-4.1,0.6
	c-2.7,1-2.8,2.7-3.2,5.1c-0.5,2.6,0.3,5,0,7.7c-0.3,3.2-2.9,3.2-2.6-0.3c0.1-1.3,1-4.5-1.5-3.8c-1.3,0.4-1.6,2.7-3.5,2.4
	c-0.2-1.4,0.6-2.8,0.2-4.1c-2.5,1.5-2.8,3.4-2.8,6.4c0,4-1.6,4.4-5.4,4.1c-0.3-2.2,0.9-3.5,1.5-5.5c0.2-0.7,0.5-2.4,0.4-3.1
	c-0.2-0.8-0.9-1.2-1.2-2c-0.7-1.9,0.3-3.9-0.6-6c-0.7-1.6-1.8-3.8-3.3-4.7c-2.3-1.4-2.9-0.5-3.1-3.6c-0.1-1.8-1-4-2.6-5.1
	c-0.7-0.4-2-0.8-2.8-0.7c-1.2,0.1-1.5,0.9-2.6,1.2c-1.1,0.3-2.1-0.3-3.2-0.3c-1,0-2.4,0.5-3.5,0.7c-0.7,2.4-0.9,3.9-3,5.6
	c-0.9,0.7-1.8,1.1-2.2,2.3c-0.4,1.3,0.2,2.6-0.4,3.8c-0.4,0.9-1.4,1.5-1.8,2.4c-0.4,1-0.2,3-0.1,4.1c0.1,1.2,0.2,2.3,0.3,3.5
	c0.1,0.9,0,2.9,0.3,3.8c0.9,2.5,4.6,1.4,3,4.9c-0.9,2-2.8,3.7-2.6,6c0.2,2.3,1.8,4.2,3.8,5.1c2.5,1.1,4.7,0.3,5.7,3.5
	c1.3,4.3-0.2,7.8-5,7.3c-0.6-1.2-0.3-2,0.3-3.1c0.8-1.3,1.4-0.5,0.5-2.2c-1-1.9-3-2.7-4.5-4.2c-3.7-3.7-5.5-7.3-6.3-12.2
	c-0.4-2.3-0.4-4.8-0.9-7.1c-0.5-2.2-1.4-4.9-1.4-7.3c0-2.3,1.5-4.3,2.3-6.4c1.1-2.6,1.6-4.9,2.9-7.3c1.3-2.4,1.2-4.2-1.8-3.4
	c-2.4,0.7-4.7,1.4-7,2c-4.9,1.2-7,5.1-9.5,9c-1.6,2.5-2.3,4.1-2.6,7c-0.2,2.4,0,5.5-1,7.7c-0.9,2-2.1,3.7-1.9,6.1
	c0.1,1.2,0.6,1.7,1,2.8c0.4,1.2,0.1,2.6,0.3,3.9c0.2,2.5,0.9,5,0.6,7.7c-0.2,2-1,6.1,1,7.7c1.5,1.2,6.1,0.2,7.9,0
	c2.8-0.3,4.8,0.3,6.7,2.2c0.7,0.7,2.2,2.1,1.7,3c-0.5,0.9-3.1,0.8-3.9,0.9c-3.1,0.2-3.9-2.5-6.4-2.9c-3.4-0.6-3.8,3.1-2.4,5.2
	c1.5,2.4,2.9,5.1,4.6,7.3c1.3,1.8,3.1,3.6,5.2,3.8c1.2,0.1,2.6,0.1,3.8,0c2.2-0.2,1.9-0.1,1.9-1.9c0-1-0.8-2.3,1.3-1.9
	c0.8,0.1,2.5,2.1,3.1,2.7c1.6,1.5,2.7,4,4.3,5.3c3.1,2.3,3.4-1.4,5.7-2.7c2.4-1.4,4.2,1.6,6.7,1.2c2.3-0.4,4.4-2.2,6.7-2.3
	c2.1-0.1,4,2.2,6.1,2.6c2,0.4,2-0.8,3.8-1.6c1.7-0.7,3,0,4.5,0.8c0-1.3-0.4-2.1-0.6-3.1c-0.3-1.9,0-2.2,1.6-2.7
	c1.3-0.4,2.4-0.4,3.8-0.4c1.5,0,2.4-0.4,3.8,0.1c3,1.1,2.4,4.1-0.2,5c-1.6,0.6-5.5,0.5-4.1,3.1c1.2,2.3,4.3,1.2,5.8,0.2
	c0.6-0.4,1.6-1.3,1.9-1.9c0.9-1.4,0-2.3-0.2-3.5c-0.5-3,3.9-2.5,3.2-5.1c-0.4-1.5-4.1-4.2-5.4-4.6c-1.6-0.4-2.9,0.3-2.9-1.9
	c0-1.9,1.5-2.2,3.2-1.9c1.4,0.2,2.1,1.1,3.3,1.9c0.8,0.5,1.3,0.6,2.2,1c0.7,0.3,1.5,0.9,2.3,1c0.6,0,1.1-0.7,1.9-0.6
	c0.1,1.6,3.7,7.5,4.9,7.4c1.6-0.1,2.2-2.4,4.3-1c1.2,0.8,1.8,3.1,1.1,4.3c3.5,0.4,5.3,1.1,8,3.5c1.2,1.1,2.7,2.3,1.9,4
	c-0.5,1.3-2.2,1.9-3,3c-2.2,3,0.8,7.5,3.7,4c2.1-2.6,0.9-6,4.6-7.4c2.2,0.8,4.3,2.2,5.9,4.1c0.5,0.6,1.1,2.3,1.9,2.5
	c0.8,0.2,2-1,2.8-1.2c3-1,3.7,1.3,4.8,3.5c1.3,2.5,3.8,2.1,5.7,4.2c2.9,3.2,5.9,6.9,8.4,10.5c1.3,1.8,3.2,3.2,2.6,5.4
	c-0.4,1.2-0.9,1.4-1,2.9c-0.1,1.4,0,2.8,0,4.2c0,3.8-0.4,5.7-2.9,8.6c-2.3,2.8-4.2,5.1-5.4,8.4c1.1,3.4,13.5,6.9,10.1,11.4
	c-2.4,0.3-3,0.2-4.1,2.3c-1.1,2-1.4,2.5-3.9,2.6c-2.2,0-1.9,0.4-3.3,2.1c-1.5,1.9-2.5,0.5-4.3,1.8c-1.8,1.2-1.4,1.9-3.9,1.5
	c-1.8-0.3-3.9-0.5-5.8-0.6c-2-0.2-3.5,0-4.1,1.9c-0.6,1.8,0.9,3,0.6,5.1c-2.8,1.1-4.5,1.9-3.4,5.2c0.6,1.9,1.7,3.7,3,5.2
	c1.5,1.6,3.1,3.7,5.2,4.1c2.1,0.4,5.3-0.2,7.1-1c1.6-0.6,4.3-1.9,5.5-3.1c1.9-2-1.7-4.4,1.3-6.1c2.1-1.1,4.2-0.5,5.9,0.7
	c2.8,1.9,2.7,0.2,3.6-2.3c0.4-1.1,1.1-3.6,2.9-3.6c2.9,0.1,1.4,4.2,3.5,4.8c3-5.3,8.3,1.5,11.1,3.9c2.1,1.8,3.6,3.6,6.5,3.1
	c1.9-0.3,4.7-2,6.7-0.9c2.3,1.2,1.5,4.4,1.8,6.5c0.3,1.9,1.2,4.1,3,5.3c1.9,1.2,4.5-0.5,6.7-0.9c2.8-0.4,6,1.2,1.6,2.2
	c-7.7,1.9,3.4,7.2,6,4.4c2.1-2.2-2.9-3.1-1.8-5c0.5-0.8,2.3-0.3,3.1-0.7c0.9-0.5,1.3-2,2.2-2.3c2.6-0.7,3.4,3.3,4.9,4.4
	c1.8,1.3,5.1,1.7,7.3,1.4c2.4-0.4,4.7-1.7,7-1.9c2.6-0.2,5.6-0.2,8,0.4c2.7,0.7,5.2,1.3,8,0.7c2.2-0.5,5-2.2,3.1-4.5
	c-0.8-0.9-1.6-1-2.5-1.6c-0.4-0.2-0.6-0.8-1-1c-0.6-0.3-1.3-0.1-1.9-0.4c-2-0.9-3.1-3.4-5.4-4.2c-2.2-0.8-4.7-1.1-7-2
	c-2.5-1-5.1-1.9-7.8-2.6c-2.5-0.6-3.6-1.9-5.7-3.2c-1.5-1-5.1-2.7-4.6-5.1c0.8-3.2,4.3,0.4,5.8,0.9c1,0.3,2.3,0.7,3.4,0.3
	c1.4-0.5,1.7-1.7,3.6-1.6c0.8,0.1,2.2,0.7,2.9,1.2c1,0.8,1.3,2.2,2.2,3c2.1,1.6,4.9,0.3,6.8-0.6c1.8-0.8,5-2.3,7-2
	c2.7,0.4,1.9,4.3,4.5,4.5c3.3,0.3,1.2-3.7,1-5.1c-0.2-1,0.5-2.8-0.2-3.6c-0.4-0.5-2.7-1.1-3.4-1.4c-1.4-0.7-7.8-5.5-3.7-6.4
	c2.2-0.5,3.4,4.3,4.8,1.5c0.8-1.5-0.6-3.2-1.8-4.1c-1.4-1.1-2.4-1.1-3.5-2.6c-1-1.3-0.9-2.9-1.8-4c-1.6-2-8.9-0.4-8.7-3.7
	c1.3-0.2,1.6-1.6,0.9-2.6c-0.9-1.4-1.7-0.7-2.9-0.6c-1.1,0.1-2.7,0.2-3.5-0.7c-0.7-0.9,0.2-2.3-1.1-3.1c-1.3-0.8-1.6,0.2-2.8,0.6
	c-1.1,0.4-2.1,0.2-3.2,0c-2-0.5-4.8-1.5-6.5-2.5c-1.7-1-3.5-3.1-4.6-4.6c-0.6-0.7-1-1.7-1.7-2.2c-1.6-1.2-1.7-0.1-2.9,0.6
	c-0.8,0.4-2.1,0.8-2.9,0.5c-1.8-0.8-0.7-2.3-1.3-3.5c-0.8-1.7-3.3-2.6-3.7-4.5c2.5-0.7,4,2.9,6.3,2.1c4.3-1.4-0.7-3.9-2.2-4.5
	c-1-0.4-5.6-4.3-2.2-4.8c1-0.1,1.3,2.3,2.8,1.3c1.7-1.2-0.7-2.1-1.2-2.7c-2.1-2.4,0.1-4.5,2.9-3.6c2.5,0.7,2.5,3.7,5.1,4.2
	c1.3,0.2,2.5-0.3,3.8,0.4c0.8,0.4,1.3,1.6,2,2.1c1.2,0.8,2.1,0.8,3.2,0.2c0.7-0.4,1.3-2.3,2.1-2.3c0.3,0,0.6,0,0.9,0.1
	c0.6,2,0.2,3.8,1.4,5.7c1.2,1.8,2.9,3,4.7,4.2c1.4,0.9,2.9,1.5,4.2,2.5c0.8,0.6,0.6,1.8,2.1,1.3c0.8-0.3,1-1.9,1.7-2.1
	c1.9-0.6,3.4,2.3,5.5,0.7c1.7-1.3,1.2-4,0.3-5.6c-1.2-2.1-6.5-10.7-0.8-10.2c-0.3-3.3,1.3-6.3,1-9.8c-1.4-0.8-3.2,1.3-4.4-0.4
	c-0.9-1.3,0.7-4.1,1.9-4.7c1.5-0.7,4.7,1.3,3.1-2c-0.6-1.4-3.9-2.6-2.5-3.8c1-0.9,5.1-1.7,3.8-2.9
	C823.2,287.9,821.4,287.5,820.7,286.9z"/>
<path fill="#000000"    d="M659.1,202.8c-1,0.1-1.6,1.2-1.7,2.2
	c-2.4,1.7-3.9-0.4-6.3-0.9c-3-0.6-5.5,1-4.2,4.2c0.4,0.9,1.2,1.7,1.7,2.5c0.8,1.3,0.4,2.2,0.9,3.5c0.3,1,1.7,1.9,2.5,2.6
	c1.2,1.1,1.5,1.8,2.1,3.4c0.6,1.8,1.9,5.5,4.7,4.4c2.8-1.1,2.3-4.1,3.2-6.1c2.2-4.7,10.3-0.6,14.2-1.8c3.8-1.2-2.5-7.9-4.5-9.2
	c-1.8-1.2-4-1.6-5.7-2.7c-1.7-1.2-2.1-2.9-4.6-2.5L659.1,202.8z"/>
<path fill="#000000"    d="M701.3,323.1c0.2,0-0.1-0.7-0.3-0.5
	c-3.2,3,11.1,1.2,13.6-0.8c1.8-1.4,1.7-5.1,1.4-7c-0.4-2.5-2.5-3.6-2.7-6.1c-0.2-2.4,1.7-4.1-1.5-5.2c-2.3-0.8-5.5-0.3-7.7,0.5
	c-5.1,1.8-4,9-4.2,13.4c0,1.3,0.4,2.4,1,3.5C701.3,321.3,700.8,323.1,701.3,323.1z"/>
<path fill="#000000"    d="M720.9,309.3c-2.2,0-4.8-0.4-5.2-3.1
	c-0.1-0.9,0.3-1.8,1.4-2.3c1.6-0.7,2.2,0.5,3.4,1c1.3,0.6,1.3,0.4,2.6-0.2c1.5-0.6,2.2-1.4,3.2,0.4c1.1,2.1-0.5,5.3-3.2,4.2
	C722.6,309.1,721.4,309.3,720.9,309.3z"/>
<path fill="#000000"    d="M710.9,300.4c0.1,0.2-5.8-3.9-3.6-5.8
	c1.9-1.7,6.5,2.9,5.5,4.6C712.6,299.6,710.8,299.8,710.9,300.4z"/>
<path fill="#000000"    d="M691.4,290.4c0.2-1.2,2.3-1,2.7-2
	c0.7-1.9-0.1-6.5-3.3-4c-2.1,1.7-0.6,8.6,0.9,6.3C691.8,290.7,691.4,290.5,691.4,290.4z"/>
<path fill="#000000"    d="M679.9,286c1.3-0.5,2.6-1.6,3.1-2.9
	c0.6-1.4,0.4-3.2-1.5-2.9c-1.9,0.3-4.5,5.1-3.5,6.4L679.9,286z"/>
<path fill="#000000"    d="M679.9,299.4c2.8,1,5.9-8.6,3-10.7
	c-3.2-2.2-5.4,7.1-4.3,8.7C679,297.9,679.4,299.2,679.9,299.4z"/>
<path fill="#000000"    d="M621.4,289.2c4.2,0.7,3.9-4.4,0.3-5.1
	c-3.1-0.6-7.1,3.1-2.9,4.2L621.4,289.2z"/>
<path fill="#000000"    d="M194.7,632.1c-1.2-1.6,1.4-3.3,3.3-2.2
	c-1.3-2.6-0.4-7.9-3.1-8.6c-1.1-0.3-2.3,1.9-4.5,0.4c-1.1-0.8-2.2-4.3-2-5.5c2.2,0.4,4.5-1.4,2.6-3.5c-0.9-1-3.7-0.8-5.1-1.9
	c-6-4.4,0-5.5,1.7-8.7c-2.5-2.8-3.6-8.2-6.5-10.2c-2.3-1.6-4.4,0.8-6.3-0.1c-2.9-1.3-1.5-5.2-1.4-7.2c0-2.5,0.6-2.8-1.9-4.8
	c-1.5-1.2-3.4-2.1-5-3.4c-3.7-3.1-5.5-7.1-5-12.7c2,0,3.2-1.7,4.3-3.1c-2.5-1-2.5-4.4-0.7-6.1c1.3-1.3,3.7-1.6,5.4-2.2
	c3.2-1.1,10.4-3.2,7.4-7.7c-4.1-1.8-5.7,2.1-9.4,1c-1.3-2.1-0.6-4.4,0.4-6.4c1.2-2.6,2.3-2.7,2.1-6.2c-0.4-7.6-5.3-2.4-4.6,1.8
	c-0.7,0.1-1,0.1-1.7,0c-1-4.1-4.2-4.9-4.7,0c-5.5,1.3-2.4-9.5,1.2-5.1c0.5-3.9,8.5-12,7.9-3.9c0.7,0.1,1.1,0.1,1.7,0
	c0.1-1.6-0.6-4.8,0.2-6.2c1-1.7,3.6-2,5-3.2c4.7-3.8-0.2-6.7-3.2-3.5c0.6,0,1.2,0.2,1.8,0.3c-0.2,2.3-3.7,3.5-5.6,2.3
	c0-0.5-0.2-1.2-0.2-1.7c-0.8,0.2-2.2-0.4-3-0.2c-0.1-1.9,0.4-3.9,0.4-5.7c0-2.5-1.7-2.9-2-4.3c-0.5-2.5,1.4-3,1.5-5.3
	c0.1-2.3-1.8-2.6-2.4-4.6c-1.7-5,2.5-5.1,6.3-5.6c3.4-0.5,7.4-3.6,7.1-7.6c5.1-0.9,4-5.1,5.8-8.4c1.7-3.1,7.2-3.7,6.1-8.2
	c-2.6-0.7-3.6-5.7-4.2-7.9c-1-3.5-2.6-6.5-4.6-9.5c-1-1.5-2.2-2.2-2.4-3.8c-0.2-1.7,2-3.7,1.8-5.1c-0.3-3-1.7-1.9-1.1-5
	c0.2-1.3,2.2-3,2.4-4.6c0.7-3.9-0.8-8.2,0.1-12c0.8-3.4,1.7-7,2.3-10.5c0.7-4.1,0.6-7.6,0-11.9c-0.2-1.2-1.3-4.1-1.2-5.2
	c0.2-1.9,1.7-2.9,1.2-5c-0.4-0.1-0.7-0.1-1.1-0.2c-0.1-1.3-0.3-2.5-0.7-3.8c2.8-1.8,1.9-5.6,1.1-8.2c-3,0.3-4.6-1.3-7.1-1.8
	c-3.6-0.7-3.1,1.3-6.2,2.4c-2.6,1-4.4-0.4-7.1-0.7c-2.2-0.2-5.5,0.6-7.6-0.6c1.6-4.2,1.9-7.3,1.9-12.2c0-4,1.1-7.7,0.8-11
	c-0.2-2.1-1-3-0.1-5c0.5-1.3,3.3-2.6,3.3-3.9c-0.1-4.4-8.3-2.1-10.2-2.6c0-0.3,0.1-2.9-0.1-3.1c-0.7-0.7-2.4-0.9-2.6-1.2
	c-1.1-1.3-2.8-4.1-1.9-4.5l124.8-139.5c-0.3-0.6,4.1,3.1,5.9,6.3c0.9,1.6,2,2.8,2.5,4.6c0.6,2-0.3,4.2-0.1,5.8
	c0.6,3.5,2.6,7.5,3.9,10.9c0.7,2,1.9,2.6,3,4c1.5,1.7,2,3.4,3.4,5c2.1,2.5,7,0.9,10.9,0.6c2.5-0.2,4.4-1.2,6.6-1.8
	c0.9-0.2,1.2-0.7,2.4-0.8c1.3-0.1,1.5,1.3,2.5,1.3c2.1-0.1,3.1-1.6,5.1-2c2.2-0.4,3.9,0.6,5.8,1.3c1.7,0.6,3.9,1.7,5.8,1.3
	c2.3-0.5,2.4-2.7,5.6-1.8c0.9,4.3,8.6,0.3,7,5.5c-2.3,1.3-5.6,1.2-8.2,1.4c-1.3,0.1-3.6,0.5-4.6,0.5c-2.6-0.1-4.5-1.7-6.9-2.4
	c-5.5-1.6-10.6,3.5-15.9,4.6c-0.1,6.5,8.2-0.6,10.1-1.4c1.5-0.6,5.4-1.2,7.1-0.7c2,0.7,3.2,3.6,5.7,3.3c4.4-0.4,7.7-4.9,12.7-1.8
	c1.1,0.7,1.7,3.7,3.3,3.8c2.1,0,2.9-3.7,2.7-5.1c3.1-0.3,4.6,0.7,5.2-2.2c0.3-1.4-2.4-6,1.3-4.5c3.7,1.5,2.6,10.5,2.4,13.6
	c-0.2,2.6-2.5,14.3,2.4,13.3c2.2-0.4,2.3-4.1,3.8-5.2c1.1-0.8,2.4,0.1,3.4-0.4c1.1-0.6,1-1.8,2-2.4c1.6-1,3.3-2.6,4.8,0
	c1.4,2.4-1.2,3-2.6,4.8c-1.7,2.3-0.9,3.5-1.7,5.9c-0.6,1.7-3.7,3.3-2.4,5.6c3.2,5.9,7.4-4.7,9.5-5.7c3.7-1.8,8,3.4,10.2,5.9
	c2.9,3.3,5.1,7,8.2,9.6c3.3,2.8,6,4.5,8.3,8.3c1.9,3.1,4.5,7.1,8,8.7c4.1,1.9,8.9,0.8,12.5,4.2c2.4,2.3,4.6,8.6,4,12
	c-0.8,5.2-7.2,1.5-9.8,6.9c-2.4,5,4.7,5,8.6,7c4.5,2.4,8.1,4.3,13.3,4.7c2.5,0.2,5.1,0,7.7,0c1.2,0,2.6,0.2,3.9,0
	c0.9-0.1,2.4-1.4,3.2-1.3c3.1,0.3,2.7,2.5,4,4.4c1.1,1.6,3.1,2.6,4.2,4.2c2.7,4,2.4,8,2.1,12.6c-0.2,2.4-1.3,6.1,0.7,7.6
	c3,2.2,3.5-1.2,3.3-3.6c1.3,0.2,2.4,0.3,3.7,0.4c1.1-8.2-10.1-19.7,2.7-22.3c3.1-0.6,11.1-3.3,13-6.2c4.2-6.6-6.1,0.3-7.8,0.5
	c-2.6,0.3-3.8-1.6-5.8-0.7c-2.3,1-1.1,4.8-5,2.4c-6-3.7-0.9-8.5,3.1-9.6c4.9-1.4,9.6-1.9,14.7-1.1c2.7,0.4,2.1-0.1,3.3,3.2
	c0.9,2.3,0.8,4.7,1.9,6.9c4.1,0.3,4.8,4.1,7.7,6.4c0.5-0.5,1.7-0.6,2.2-1.1c2.5,2.2,3.9,5.5,6.7,7.4c3.2,2.1,7.1,2.5,10.7,2.7
	c3.7,0.2,9.1-1.2,12.2-0.7c3.1,0.5,6.3,4.2,8.2-0.5c2.2,5.5,7.5,8.4,12.9,6.9c1.3-4.9-2.5-5.5-5.8-6.8c-2.9-1.1-2.5-0.7-4.2-3.3
	c-0.9-1.4-2.3-3.7-1.3-5c0.6-0.7,4.5-0.7,5.5-0.9c2.4-0.4,1.7-1.4,4.1,0.6c1.4,1.2,1.1,2.4,3,3.4c1.8,0.9,4.2,0.5,6.3,0.7
	c-0.6,4.5-7.6,18.7,1.9,17.9c-0.1,1.7,0.8,2.6,2.5,2.4c1.7-4.3,0.9-7.1,0.1-11.5c-1.1-6.4,1.4-4.3,5.6-7.1c2.9-2,5.7-6.3,6.5-9.5
	c1.3-4.6-1.6-9.1-3.2-2.6c-5.7-0.5-1.7-9-3.2-11.3c2.3-1.3,5.2-0.1,6-3.3c-1.3-1.8-3.4-1.5-4.7-0.1c-0.6-2.1-1.2-4.6-2.2-6.2
	c-4.5,5.4-10-4.2-11.4-8c-0.4-1.2-1.7-5-1.1-6.1c1.2-2.4,5.5-0.7,4.2-4.5c-5.6-1.8-3.6-4.9-3.6-9.2c0-2.2-0.8-4.5,1.7-5.6
	c2.4-1,4.2,1.9,6.3-0.1c-0.8-2.9-4.4-2.4-3.9-5.1c0.2-0.9,5-5.2,5.8-5.5c2.2,2.3,2.1,7,5.8,3.6c0.6-1.3,0.1-0.7,1.3-1.1
	c0.9,3.1,1.4,5.7,3.1,8.4c2,3.1,3.4,5.1,4,8.8c0.8,4.2,1.3,4.3,4.3,7.2c3.6,3.5,2,6.3,3.9,10c-1.4-0.6-2.7-1.1-4.3-1.1
	c-0.5,2.7,3.3,3.5,3.2,5.7c-0.1,1.2-3.1,3.4-3.8,4.3c2.4,1.6,3.3,1.9,6.3,2.1c2.7,0.2,5.8-0.8,7.5,1.9c-1.1,1.3-2.9,2.7-2.9,4.4
	c7-0.2,3.1,15.1,8.7,16.6c3.9-3.4-1.2-20.2,7.1-15.8c3.4,1.8,9,9.7,10.3,13.1c-1.3,2.4-3,0.5-4.9,0.3c-2.4,5.1,1.8,10.5,4.4,15.2
	c0.9,1.7,2.6,6.8,4.6,7.6c4,1.7,1.7-4.7,6.1-4.4c1.1-5.2,1.7-9.8,2.2-15.3c0.4-5.1-1-10.9,4.9-12.3c0.1-1.3,0.7-4.4,0.2-5.7
	c-0.5-1.2-2.8-2-3.7-3.3c-2.1-2.9-1.6-8.3-1.3-11.9c3-0.3,6.5-0.4,9.5-0.1c2.7,0.2,6.4-0.6,8.8,0.1c2.1,3.7,0.1,4.5,4.6,5.6
	c4,1,5.4,0.2,6.5,4.5c1.7,6.5,4.5,12.3-4.5,11.6c-2.7,4,3.7,8.3,6.1,10.8c3.2,3.4,7,6.7,7.1,11.4c0,5.3-2.5,7.3-5.1,11.5
	c-1.8,3-3.3,8.3-6.8,10.3c0-2.8-2.7-4.2-4.4-1.7c-2.7,3.8,3.6,2.9,1.6,6.1c-2.2,3.6-3.7-0.6-5.4-0.7c-2.8-0.1-2.1,4.3-5.8,1.4
	c-0.2-3-1.4-3.4-4-3.7c-1.5-0.2-5.9-0.3-7.6,0.1c0.5,3.6,4,2.9,6.8,3.2c1.6,3,0.3,3.6-1.2,5.6c-1.4,2-2.3,3.2-3.4,5.6
	c-1.8,4.1-4.8,10.5-9.3,9.6c-4.2-0.9-8.9-4.1-12.5-6.7c-4.6-3.4-9.3-2.4-14.5-1.9c0.3,2.7,3.6,1.9,5.7,2.4c2.4,0.6,4.2,1.7,6.4,3.1
	c4.5,2.9,6.5,4.9,12.1,4c4.3-0.7,9.5,0.2,7.7,5.8c-1.4,4.2-3.1,8.6-4.5,12.8c-1.8,5.4-2.9,6.5-8.4,7.6c-1.6,0.3-4.9,0.8-6.4,2
	c-2,1.6-1.7,3.4-3.1,5.3c-3.6,4.6-10,2.3-14.1,0.5c-2.6-1.1-3.4-1.1-5.8-1.3c-2.2-0.2-4.4-0.5-7.1-1.3c-2-0.6-6-2.6-6.3,1.2
	c5.5,0.2,8.8,1.2,13.4,3.8c4.4,2.5,9.4,0.4,13,5.1c2.1,2.7,4.1,8.5-0.3,10.9c-2.1,1.2-4.8-0.7-6.9-0.5c-1.9,0.1-4.3,1.6-6.3,2.1
	c2.2,1.1,9.6,1.9,6.2,6.8c-2.7,0.8-3.1-1.1-5,0.7c-0.2,0.2-0.1,2.2-0.4,2.7c-0.5,0.8-1.5,1.6-2.3,2.2c-2.5,2-7.5,3.6-8.1,7.1
	c0.9,0.1,1.4,0.8,2.3,0.9c0.7,2.8-2.6,4.6-4.2,6.5c-2.1,2.5-2.1,4.3-2.9,7.4c-1.3,5.2-4.1,10-5,15.5c-1,5.9-1.6,12.2-2.5,17.9
	c-0.8,4.7-1.4,12.8,4.3,14c2.5-3.6,5.6,0.1,8,0.2c3.2,0.2,6-1.8,7.5,2.4c1.1,3.2,0.5,6.3,2.1,9.5c1.2,2.4,2.5,6.8,3,7.8l1.3,4.5
	c-0.4-0.1-0.8-0.1-1.2,0.1c0.3,2.1,1.5,4.4,1.3,6.8c3.4,0.7,5.3,2.2,8.9,0.6c3.2-1.4,4.5-3.1,8.3-3.1c5.5,0.1,10,5,15.3,5.8
	c6.4,0.9,9.8,1.1,14.6,5.9c3.8,3.8,7.2,6.1,9.2,11.2c5.1,0.2,8.4,0.7,12.5,3.5c4.4,2.9,6.4-1.5,11.2,1.6c3.9,2.6,4.9,5.8,9.9,4.5
	c2.2-0.6,3.5-1.6,5.9-1.8c2.9-0.2,5.5,0.4,8.3,0.6c2.4,0.2,5-0.7,7-0.7c1.3,0,2.8,1,3.9,0.7c1-0.2,1.9-1.6,2.7-1.8
	c5.6-1.2,4.8,5.4,3.8,9.4c-2.1,8,4.8,17.4,6.9,25c0.7,2.7,0,6.5,1.1,9.1c1,2.3,3.4,4.7,5.1,6.4c2.4,2.4,5,4.4,7.2,6.9
	c2.4,2.7,4.1,2.9,7,4.6c4.9,2.9,7.2,8.5,12.2,10.9c8.9,4.2,3-10.9,8.9-10.8c-0.1,0.6,0.3,1.6,0.2,2.2c0.8-0.2,2.2,0.4,3,0.2
	c0,1.9,1.2,3.4,3.2,3c1.2-2.2,1.9-6.9-1.7-7c-0.2-2.2-0.3-4.7-0.1-6.9c0.1-2.2,1.4-5.6,0.7-7.7c-0.7-1.9-3.1-2.7-4.1-4.4
	c-1.3-2.3-0.8-4.8-1.7-7.1c-1.4-3.5-4.3-5.9-5.8-9.6c-1.6-4-2.9-8.3-3.3-12.7c-1.2-0.8-2.4-0.9-3.6-0.2c-2-3.3-8.2-5.9-5.8-10
	c2.1-3.5,7.7-4,10.7-6.7c3.3-3,5.4-6.6,7.9-10.1c3.3-4.7,3.1-9.3,4.5-14.6c2.5-9.7,0.5-18.7-4.2-27.5c-4.4-8.2-12.9-12-20.3-16.9
	c-3.4-2.3-8.8-3.7-8.9-8.8c-0.1-3.7,5.5-6.4,5.1-12.1c-0.2-2.2-3-5.1-2.6-7c0.6-3.2,4.6-1.5,4.5-5.1c-0.1-2.4-3.2-3.6-4.5-5.1
	c-1.7-1.9-2.8-4.3-2.7-6.9c-3.4-1.4-5.1-2.4-4.5-6c0.2-1.5,1.6-2.1,1.5-4.3c-0.1-1.5-0.9-3-1.3-4.5c-0.8-3.3-1.2-6-3-9.1
	c-1-1.8-5-6-4.7-8.1c0.9-6,16.4-5,20.5-5.1c9.4-0.2,12.9-4,19.4-10.1c1.9,0.6,3.3,2.2,5.1,3c2.7,1.1,5,0.8,6.9,3.3
	c0.7,0.9-0.5,2.1,0.7,3.1c0.7,0.6,3.4,0.1,4.3,0.1c3.7,0,5.2-0.8,6.4,2.6c0.4,1.2-0.8,1.6-0.2,3.2c0.7,1.7,1.2,2,2.7,2.7
	c2.5,1.2,6.5,0.7,9-0.2c0.9-0.3,2.7-1.7,3.4-1.8c1.9-0.3,0.7-0.2,2.6,0.4c1.7,0.6,0.8,3.8,3.7,1.8c0.9-0.6,1.3-2.6,1.3-3.6
	c4.9-0.9,1.2,7.1,2,9.4c0.9,2.7,5.2,4.1,6.2,7c-0.9,0.2-1.2,0.9-2.4,0.9c-0.6,3.5,1.9,1.2,3.1,2.4c1.5,1.5,1.1,2.3,1.2,4.5
	c0.1,2.6-0.1,8.7,4.5,6c4.8,3.7-1.7,8.1-1.9,11.2c-0.1,2.3,2,3.9,4,2.8c1.7-0.9,1.2-4.6,2.5-5.8c0.8-0.8,4.4-2,5.6-2.2
	c3.9-0.6,2.6,0.6,5.1,2.1c3.3,1.9,7.4-1.7,9.6,4.2c3.5-3.8,4.8-6.5,5.9-11.1c0.4-1.6,1.1-4.9,2.4-5.9c0.8-0.7,2.5,0.6,3.4-0.4
	c1.2-1.4-0.1-2.2-0.2-3.4c-0.8-10.8-4.6-20.6-3.7-31.9c4.6-0.8,5.5,7.8,8.8,9.5c4.3,2.1,10.4,3.5,13.6,7.6c2.8-1.5,6.1,0.2,8.2,2.5
	c2.6,2.9-0.2,7,1.7,8.5c3.1,2.4,3.3-4.1,6.6-3.3c0.6,0.2,4.4,6,4.6,7c3.1,0.6,5.2-2.6,8.4,0c3.3,2.6-0.1,3.7,0.6,7.1
	c1.2,0.5,2.6,0.3,3.7,0.8c1.3,0.5,2,1.3,3.2,1.8c2.4,1,3.3,2,5.6-0.4c1.8,1.9-1.1,7.2-0.6,9.7c0.8,4.5,1.5,4.6-2.5,7.5
	c0.8,1.2,6.1,2.2,7.3,1.8c3.4-1.1,2.6-3.7,6.3-0.5c1.1,1,0.7,2.8,3.2,3.3c0.9,0.2,2.8-1.1,3.8-1.3c2.7-0.7,5.2-1.6,7.6-2.5
	c0.2,3-0.4,3.5,0.8,6.2c0.7,1.6,2,2.1,1.5,4c3-1,2.8-3.3,6.1-3.9c1.6-0.3,3.1,0,4.6-0.5c1.7-0.6,2.4-1.8,4.3-2.1
	c3.8-0.7,6.9,2.3,9.7,2.1c3.4-0.3-0.8-6.2,4.4-6.5c3.4-0.2,3.9,4.4,7.5,3.9c0.7,3.8-15,12.6-8.3,16.7c-3.4,4.1-6.6,5.9-8.3,11.3
	c-0.9,2.9-2.5,14.1,3.7,10.7c1.6-0.9,1.8-6.6,2.7-8.2c1.1-2,2.7-5.9,3.5-8c1.1-2.6,1.4-2.1,2.2-4.8c0.8-2.9,1.8-3,1.4-6.3
	c3.5-1.2,4-5.9,8.2-5.2c5.2,0.8,3.5,6,5.2,10.1c6.4,2.1,2.7-5.3,4.5-7.5c2.2-2.6,7.4,0,9.6,1c3,1.4,4.6,1.5,6.5,4.3
	c1.4,2.1,6.6,10.2,10.6,7.7c0.8,1.9,1.7,3.8,2.2,5.4c0.6,1.8-0.6,4,0.2,5.9c1.5,3.8,0.4,6.7-1.3,10.6c-0.7,1.5-1.3,3.7-2.9,4.8
	c-1.7,1.2-4.4,0.5-6.1,2.2c-2.2,2.2-2.4,6.2-3.3,9.1c-1.8,0.2-4.2,1.9-6,2.1c-0.4,4.9,0.7,5.9-0.7,10.8c-0.6,2-0.8,8-1.8,9.7
	c-1.2,2.1-1.2,4.2-2,6.3c-1.7,4.4-5.6,5.1-9.1,8.1c-3.5,3-5.2,6.1-9.4,7.2c-5.5,1.4-9.6,4-15,6.4c-3.9,1.7-8.1,1.7-11.7,4
	c-7.4,4.7-13.2,6.4-20.6,11.1c-3.7,2.3-8,4.3-10.7,8.1c-4.2,6-2.9,15.5-2.2,21.5c-12.5,1.8-15.8,18.1-19.1,27.6
	c-1.9,5.5-2.8,13.3-3.2,19.2c-0.3,3.5-0.8,6.4-1.3,9.6c-0.5,3-2.1,5.9-1.8,8.9c5.2,0.9,11.7-18.7,12.7-22.9c2.2-9.5,2-18.9,8.9-26.2
	c6.2-6.5,12.5-14.5,19.3-20.3c6.6-5.6,15.7-13.3,25.5-9.3c0.6,0.2,1.2,0.1,1.8,0.2c0.4,2.3,2.2,2.7,2.8,5c0.7,2.5-0.3,4.1-1.6,6.2
	c-0.8,1.4-2.9,2.7-3.6,4.1c-0.9,2-0.2,5.3-0.9,7.4c-4.8,1.5-12,2.4-13.9,8.3c3.7,1.1,7-2.1,10.7-1c1,4.9,3.1,0.6,4.4-0.9
	c2-2.4,4.5-3.6,7.7-2.9c-0.2,2.8-1.3,11.4-0.2,14c1.4,3.5,5.8-1.2,8.5,2.1c-1.6,2.8,3.1,3.6,5.1,4.4c1.2,5.3,12,4.1,16,4.5
	c-0.2,0.4-0.2,1.2-0.5,1.7c3.1,0.9,5.6-1.4,8.4-1.6c1.7-0.1,2.6,0.4,3.9,0c1.5-0.5,1.9-1.6,3.7-2.2c4-1.4,5.5-0.3,8.5-3.6
	c1.5-1.7,3.3-4.9,5.5-5.2c-0.2,0.8,0.4,2.2,0.2,3c2.7,1.3,3.8-0.5,6.2-1.1c-0.4,6.8,3.2,3.1,6.4,2.6c-1.4,3.8-5.4,4.9-8.2,7.9
	c-3.1,3.3-5.7,7.5-8.3,11.2c-4.7,6.6-15.6,9.8-16.1,18.1c-0.4,5.4-0.6,7.9-3.2,12.7c-1.1,2.1-2.4,4-3.2,6.2
	c-0.7,1.9-0.3,5.3-1.3,7.1c-0.9,1.6-3.3,3.4-5.5,2.6c-1.3-0.5-0.2-2.2-1.4-2.6c-1.8-0.7-2.2,0.2-3.9,0.2c-3.5,0.1-4,0.5-5.1-3.2
	c-0.9-3,0-5.4-0.1-8.3c-0.8,0.2-2.2-0.4-3-0.2c-1-3.7,4.8-11.5,6.8-14.6c2.7-4.2,5-9.9,10.3-11.4c0.1,0.4,0.2,0.7,0.3,1.1
	c2.9,1,10.4-8.6,10-11.3c-7.1-0.6-12.1,6.2-17.7,9.4c0.3-2.7,5.9-12.7-0.3-9c-2.9,1.7-5.4,7.7-7.4,10.5c-2.1,2.9-4.2,11-7.3,12.6
	c-1,0.5,0.5-4.3-0.8-3.7c-0.9,0.4-3.5,4.4-4.3,5c-2,1.3-3.8,2.6-5.8,3.8c-1.9,1.2-3.4,3.3-6.3,2.1c-2.6-1.1-2.5-4.1-4.5-5.8
	c-2-1.7-4.1-1-6.3-3.2c-1.2-1.3-2.1-3.6-3.1-5.2c-2.4-3.6-6-15-7.2-16.8c-0.9-1.3-3.8-1.8-5.8-2.3c-1.7-0.4-2.4,1.2-3.3,1.2
	c-0.8,0-1.6,0.6-2.3,0.7c-1.3-4.8-5.5,0.1-7.8,0.2c-3.9,0.3-4.5-4.7-5.8,1.7c-0.6,3.3-0.9,6.3-1.8,9.6c-0.3,1.3-0.9,3.2-0.8,4.5
	c0.1,1.7,1.8,2.4,1.3,4.5c-0.7,3.7-2.8,2.8-1.3,7c0.8,2.4,3,5.6,2.5,8.3c-0.3,2-1.5,2.5-1.9,4.5c-0.4,1.9,1.2,3.2,1.1,4.6
	c-0.1,2.9-2.2,5.2-5.5,5.1c-0.4,1.9-2,2.2-3.9,1.9c-0.5,1.9,1.1,4.1,0.4,5.5c-0.5,1.1-3.9,2.6-5,3.2c-3.5,1.8-7.2,3.2-10.9,4.5
	c-8,2.8-16,5.2-23.5,8c-3.4,1.2-7,2.2-9.9,4.8c-3.1,2.8-4.9,6.5-7.7,9.6c-5.5,6.3-8.7,11-16.4,14.3c0.4,3.1,3.4,3.4-0.6,5.8
	c-2.5,1.5-5.7,0.9-8.5,0.6c-3.3-0.4-4.4,0-7.5,1.9c-2.3,1.4-4.5,2.8-6.7,4.2c-3.8,2.4-9.9,5.7-12.2,9.7c-1.9,3.3-1.7,7.1,2.7,7.1
	c3.2,0,4.9-3.5,8.2-2.5c-0.1,1.1,0.3,2.5,0.2,3.6c1.9,1.1,8.6,1.9,3.1,4.6c-2.5,1.2-7.3-0.1-10.1,0.8c-2.5,0.8-7.1,2.5-9.1,4.3
	c-4.3,3.9,1.8,2.5,2.5,5.6c-4.3,0.4-10-1.5-14-0.6c-3.2,0.8-16.4,16.7-20,19.1c-3.3,2.1-11.3,0.8-9.3-4.8c5-2.7,8.7,0,6.8-7.6
	c-1.4-5.5-1.4-8.6,3.3-12.4c3.8-3.1,6.6-5.9,5.3-10.9c-1.1-4.1-4.2-8.8-3.4-13.3c1-5.6,7.8-6.4,3.9-12.1c-1.6-2.3-11.5-10.9-3.8-9.6
	c4.1,0.7,5.4,6.3,8.1,8.5c1,0.8,11.5,4.5,13,3.7c3.2-1.8-0.5-4.3-1.3-6.3c1.5-0.6,2.9-1,4.3-1.5c1.4-5.1-9.3-12.5-12.8-15.7
	c-0.9-0.8-3.3-3.7-4.2-4.2c-3.1-1.7-2.3,0.3-4.8,1.3c-4.4,1.9-8.8-0.3-13.3-0.6c-9-0.7-18.6,1-27.7,0.3c-2.1-0.2-4.5,0.1-6.4-0.6
	c-0.7-0.3-1.1-1.7-1.9-2c-0.9-0.3-3.1,0.4-3.7-0.1c-3.4-2.7,2.2-8-4.3-9.7c-1.2-4.4,2.4-4.7-0.9-8.7c-2.2-2.6-5.6-4.5-5.1-8.4
	c-4.9-1-7.1,3-12.2-0.4c-4-2.7-5.7-7.9-8.9-11c-2.5-2.5-11.1-0.8-15.2-1.6c-2-0.4-5.5-1.4-7-2.4c-6.4-4.1-2.2,3-2.1,5.7
	c-10.4-8.3-4,4.8-8.8,5.9c-1.1,0.2-1-1.7-2.4-1.2c-1.3,0.4-1.6,2-2.2,2.9c-1.6,2.5-1.3,5-2.5,7.7c-0.7,0.2-1.6,0.2-2.3,0
	c-0.7-3.2-2.2-0.4-3.9-0.7c-0.7-0.1-1.4,0.6-2.1,0.4c-0.8-0.3-0.3-2-1.6-2.3c-2.3-0.7-9.8,2.1-9.2-2.3c-2.7,0.1-4.3,2.2-6.4,3.7
	c-3.3,2.4-4.4,1.4-8-0.8c-1.3-0.8-2.4-2-3.9-2.3c-1.9-0.3-2,1.3-4.1,0c-2.9-1.7-3.5-3.9-6.9-5.3c-4.4-1.7-6.1-0.6-10.1,0.2
	c-3.1,0.6-5.2-0.9-8.4-1.6c-4.4-1-3.6,1.2-5.3-3c-1.2-3-2.4-7.8-3.3-10.9c-5-1.6-3.1,4.1-3.7,8.2c0,0-92.7-1.6-200.9-24.3
	C283.6,676.2,194.7,632.1,194.7,632.1z"/>
<path fill="#000000"    d="M168.4,626.6c0.2-1.8,3.1-2.4,2.3-4.8
	c-0.3-1-1.2-1.8-2.3-1.8c-1.4-0.1-1.4,0.9-2.5,1.6c-0.8,0.5-1.3,0.9-2.2,0.2c-1.5-1.2,0-2,0-3.1c0.1-2.1-2.9-2.1-1.1-3.9
	c0.7-0.6,2.4-0.4,1.5-2.2c-0.4-0.9-1.6-0.5-2.1-1.4c-0.6-1.1,0.6-2.1,0.3-3.1c-0.4-1.6-1.2-1.1-2.6-1.3c-2.1-0.3-4-2-2-4.2
	c1.1-1.2,4.2-1.9,2.6-4.3c-1.7-0.3-2.6,2.5-4.2,2.7c-1.7,0.3-3.8-2.5-2.7-4c1.7-2.3,4.6,1.3,5.8-1c1.4-2.8-2.4-2.1-3.5-3.3
	c-1.3-1.4-0.2-3.8-1.4-5.3c-0.8-1-2.8-1.9-3.8-2.9c-1.3-1.2-3.6-2.2-1.5-3.8c1.2-1,4.1-1.7,5.7-1.6c1-3.1-4.2-2.3-5.3-3.2
	c-0.9-0.8-1.9-5.4-1.4-6.6c1.1-2.7,4.7-1.1,6.3,0.1c2.1,1.5,4,3.6,5.3,6c1.1,2,1.9,4.3,3.5,6c1.8,1.9,3.4,3.2,4.4,5.5
	c1,2.3,2.3,3.8,4.4,5.5c1.7,1.4,3.4,2.5,4.3,4.6c1.9,4.4,0.6,10.7,1.5,15.4c0.9,4.8,6,7.5,7.5,12.1c1.2,3.8,2.9,12-2.1,14.4
	c-4,1.9-7.9-4.8-10.4-7c-0.9-0.8-1.9-1.3-2.6-2.2C169.5,628.9,168.3,627.5,168.4,626.6z"/>
<path fill="#000000"    d="M135.5,526.5c2.1-0.4-2.1-5.9-2.4-8.3
	c-0.1-0.9,0-2.3,0.1-3.2c0.2-1.9,0.3-4.4,0.9-6.1c0.3-0.8,0.5-2,1.3-2.6c1.1-0.9,2.1-0.2,3.3-0.6c2.1-0.7,0.8-3.8-1.2-3.9
	c-0.7-2.8,5-5,6.7-6.3c1.5-1.2,6-3.8,6.4-5.8c0.3-1.6-0.8-2.6-2.3-2.6c-1.2,0-2.2,0.9-3.2,1.6c-2.3,1.8-4.5,3.7-7.6,3.5
	c-0.5-1.6,1-1.9,2.2-2.2c1.7-0.4,2.2-0.3,3.3-1.8c0.6-0.9,1.4-2.5,1.2-3.6c-0.3-1.5-1.5-1.7-2.5-2.6c-1.9-1.7-1.8-4.5-4.9-2.9
	c-1.9,1-4.2,3.6-5,5.5c-0.5,1.3-0.5,2.2-1.3,3.3c-1,1.4-1.6,1-1.1,3.1c0.3,1.1,0.7,1.7,0.7,3.2c0,1.4,0.3,2.6,0.3,3.8
	c0.2,2.6-1.4,4.5-1.3,7c0.1,2.7,0.9,4.6,0.6,7.4c-0.2,2.3,0.3,4.5,0.6,6.7c0.3,1.8,0.4,4.7,1.9,5.8
	C133,525.4,134.6,526.7,135.5,526.5z"/>
<path fill="#000000"    d="M289.7,215.9c0,3.1,0.6,5.5,3.8,6.5
	c3.4,1.1,6.2,0.4,9.2-1.4c1.2-0.7,2.5-1.3,3.7-2.1c1.8-1.2,1.3-1.3,0.6-3.3c-0.6-1.6-0.1-2.8-2.3-1.7c-1.6,0.8-2.1,2.2-4,1.9
	c-0.5-2.9-2.8-0.8-4.3-0.4c-2.9,0.9-2.8-3.5-4.7-2.2C290.9,213.8,289.6,215.1,289.7,215.9z"/>
<path fill="#000000"    d="M381.1,203.7c-0.5-0.2,1.3,2.2,1.8,2.9
	c0.7,1,1.2,2,1.8,3.1c0.9,1.9,1.8,3.9,2.5,5.8c0.6,1.9,1.9,4.7,0.9,6.7c-0.9,1.9-3.3,3.4-1,5.5c1.5,1.4,5.3,1.4,7.1,1
	c1.1-0.3,1.9-1.2,3-1.6c1.7-0.7,1.5-0.1,2.7,0.9c1.6,1.4,4.4,2.1,6.2,0.4c1.6-1.5,2.1-4.5,2.9-6.5c0.9-2.2,1.3-3.8,3.7-4.9
	c1.1-0.5,1.9-0.6,3.3-0.6c1.9,0,2.2,0,3.1-1.6c1.2-2.1,1.8-4.2,4.2-5.2c2.3-1,4.9-1.1,7.4-1.9c2.6-0.9,3.9-2,6-3.5
	c2.2-1.6,4.9-1,7.4-1.4c6.3-1.2,5-7.6,3.6-12.2c-0.7-2.4-1.8-4.9-3.4-7c-1.8-2.4-4-2.8-6.6-3.3c-2.1-0.3-4.6-0.4-6.3-1.7
	c-1.6-1.2-2.7-4.1-3.4-5.9c-0.7-1.8-0.9-4.9-3.1-5.5c-1.1-0.3-2.7,0.1-3.8,0c-1.5-0.1-2.7-0.4-4.2-0.6c-2.1-0.4-4.6-2.5-6.7-2.6
	c-2.5-0.1-2.5,4-3.6,5.8c-1.2,1.9-1.5,2.6-1.1,4.7c0.4,2.2,0,2.9-1.1,4.9c-1.7,3.1-4.4,5.8-7,8.3c-2.3,2.3-4.8,4.4-7.1,6.6
	c-2.2,2.1-4.8,5-7.3,6.5L381.1,203.7z"/>
<path fill="#000000"    d="M504,261.3c0.8-2.4,2.8-3.8,2.3-6.7
	c-0.4-2.3-2-4.6-2.3-7c-0.7-5.5,0-10.5,0-16c0-1-0.4-2.8-0.2-3.6c0.2-1.6,0.7-1.5,2.1-2.6c2.3-1.8,2.5-3.9,3.4-6.3
	c1-2.9,3.6-3.9,1.1-6.6c-1.5-1.7-3.3-3.2-5.4-4.2c-2.1-1.1-4.7-0.9-6.4,1c-1.5,1.8-0.4,2.6,0.3,4.8c0.4,1.1,1.1,2.4,1.5,3.5
	c0.6,1.7,1.3,3.1,2.4,4.4c0.5,0.6,1.5,3.1,0.3,3.7c-1.1,0.6-2.8-1.2-3.4-1.9c-1.2-1.5-1.7-4.6-3.4-5.5c-1-0.6-2.1-0.4-3.1-1
	c-0.7-0.5-1.3-1.8-2.3-1.9c-2.7-0.2-2.3,4.6-2.3,6.4c0.1,2.6-0.6,5.3-1,8c-0.5,3.2-1.5,5.4-0.6,8.6c0.7,2.4,1.6,4.9,0.2,7.4
	c-0.8,1.4-3.3,4.4-4.6,2.8c-1.2-1.4-0.9-6.1-0.7-7.9c0.4-5.3,1.6-9.4-1.5-14.1c-1.4-2.1-1.7-4-2.6-6.1c-0.9-2.2-3.3-4-4.6-1
	c-1.2,2.7,2.2,4,1.7,6.2c-0.3,1.2-1.6,1.4-2.6,1.5c-1.6,0.2-1.4-0.1-2.8,0.8c-0.9,0.6-5.9,2.3-4.5,0c0.5-0.9,2-0.6,2.6-1.3
	c0.9-1,0.6-1.8,0.2-2.9c-0.6-1.7-2-2.7-3.2-4.2c-0.8-1.1-2.3-3.3-3.7-3.7c-1.9-0.5-4,1.8-5.4,3c-2.2,1.9-4.2,2.5-6.8,3.4
	c-1.5-2.5,2.5-4.1,3.9-5.7c0.7-0.8,1.7-2,2.2-2.9c0.9-1.7,0-1.9-0.2-3.8c-0.3-3-1.1-5.2-4.5-4.5c-2.3,0.5-5.6,3.3-8,2.8
	c0-0.3-0.1-0.6-0.1-0.9c-2.1-1.4-7.2,2.8-9.3,3.7c-2.6,1.2-6.6,2.4-8,5.4c-0.7,1.6-0.1,2.5-1.5,3.9c-1,1.1-2.3,2.1-3.5,3
	c-2.5,1.9-5.7,6.2-0.1,5.7c1.3,2.1-1.6,5,0.4,7c1.6,1.7,5.2,1.3,7.4,1.3c2.6,0,5,0.4,7.3,1c4.4,1,1.4,2.7-1.6,2.6
	c-4.8-0.3-9.6-2.5-14.7-1.6c-2.1,0.4-3.7,2.6-3.8,4.8c0,1.3,0.8,1.7,1.2,2.9c0.5,1.3,0.1,2.7,0.6,3.8c0.9,1.8,3.8,2.6,5.7,3.1
	c2.4,0.7,4.6,1.3,7,2.3c2.4,1,3.6,2.1,6.4,1.7c2.5-0.4,4.9-1.6,7,0.6c1.6,1.6,1.7,4,3.9,5.1c2.5,1.2,3.9,1.5,5.8,3.8
	c1.4,1.8,2,5.2-1.3,5.1c-1.6,0-4.2-2-5.7-2.7c-2.5-1.1-5.2-1.8-7.6-3.2c-2.2-1.3-3.7-2.9-6.2-3.4c-2.4-0.5-4.5-1-7-1
	c-2.6,0-5.1-0.7-7.6,0.1c-5.3,1.6-1,9.2,0.6,12.3c0.9,1.8,1.4,4.7,2.6,6.1c1.3,1.6,3.9,1.7,5.7,2.5c1.8,0.8,4.4,2.3,5.7,3.7
	c1.4,1.4,1.5,4.2,2,6c1.1,4.5,0.6,10.2,6.4,11.9c4.9,1.4,10.7,0.1,15.6,1c2.6,0.5,4.4,1,6.6-0.6c1.9-1.5,3.8-2,6.3-2
	c3.8,0,6.6,0.1,9.6-2.2c1.8-1.3,5.3-6.2,7.6-5.8c0.8,2.6,1.5,4.1,3.8,5.8c1,0.7,2,1.3,3.2,1.6c1.2,0.3,3,0.2,3.5,1.8
	c-0.8,0.7-1.7-0.1-2.4,0.4c-0.5,0.4-0.9,1.9-1,2.4c2,0.8,3.9,2.2,6,2.3c1,0,1-0.4,2-0.6c2.2-0.3,2.2,0.3,3.3,0.9
	c1.8,0.9,4,2.1,6.2,1.5c4.8-1.2,8.6-6.7,5.8-11.2c-2.3-3.8-3.5,0.5-5.8,0.7c-2,0.2-1.6-1.4-1.9-2.6c-0.4-1.2-1.2-1.8-1.6-2.9
	c-0.4-1.1-0.3-2.2,1-2.5c1.7-0.4,2.1,1.3,2.8,2.2c2.4,3.1,2.4-0.8,3.2-2.6c0.4-0.8,1.4-1.7,2.2-2c0-0.2,0.1-0.3,0.1-0.5
	c2.9-0.9,1.4,8.9,4.5,5.1c0.6-0.7,0.3-3.9,1.9-3.1c0.8,0.4,0.7,3.7,0.9,4.5c2.9,0.5,3.3-8.9,1.8-10.4c-1-1-1.8-0.1-2.5-0.4
	c-1-0.4-1.4-1-2-1.9c-0.9-1.4-1.7-2.9-2.7-4.3c-1.3-1.8-2.3-3.1-4.6-3.5c-2.3-0.3-3.2,0-4.6-2.2c-0.9-1.5-1.2-3.3-2.1-4.9
	c-0.6-1.1-2.2-3.5-1.7-4.4L504,261.3z"/>
<path fill="#000000"    d="M497.3,315.1c-0.4-0.7-2.3-1.3-3-0.7
	c-0.8,0.7,0,2.3,0.3,3c1.1,2.2,5.1,2.7,3.9-0.4C498.3,316.4,497.6,315.6,497.3,315.1z"/>
<path fill="#000000"    d="M514.9,313.1c-3.3-1.3-1.5,5,0.6,5.8
	c2.8,1,4.6-2.4,1.9-3.8C516.7,314.7,515.6,313.4,514.9,313.1z"/>
<path fill="#000000"    d="M526.7,308.7c-3-1.8-5,3.5-3,6.1
	c2.2,2.8,5.7,0.8,4.9-2.3C528.3,311.5,527.6,309.2,526.7,308.7z"/>
<path fill="#000000"    d="M560.3,298.4c-3.3-1.2-2.1,4.8-0.4,6.2
	c2.7,2.1,5.6-1.4,3.9-3.6C563.1,300.1,561.3,298.8,560.3,298.4z"/>
<path fill="#000000"    d="M543,315.7c2.4,1.4,6.3,4.7,9.6,5.5
	c2.6,0.6,4.7,0.1,6.5-1.9c1.3-1.5,2.8-4.4,5-4.6c1.1-4.2-3-1.7-4.3-2.9c-0.9-0.8-0.2-2.6-0.5-3.7c-0.2-0.9-1-2.1-1.6-2.9
	c-1.3-1.6-3-2.4-4.1-4.2c-0.6-1.1-0.8-1.8-1.8-2.6c-0.9-0.7-2.1-1-3-1.8c-1.5-1.4-2.2-4.1-4.2-3c-1.3,0.7-3.1,2.9-4.1,4
	c-1.3,1.6-0.6,1.5-0.3,3.4c0.2,1.3,0,2.5-0.7,3.4c-1.5,2-3.9,1.3-5.5,2.9c-1.8,1.7-1.7,4.7,0.7,5.2c2.9,0.6,4.2-0.8,6.7,1.3
	L543,315.7z"/>
<path fill="#000000"    d="M529.6,218.1c-0.8,0.6-1.7,2.5-1.3,3.5
	c0.5,1.2,2.2,1.1,3.2,1.7c2.6,1.5,2.2,3.6,1.9,6.3c-0.2,2.2-1.2,5.3-3.8,2.8c-1.7-1.8-0.8-4-3.3-5.3c-5.5-2.9-6.9,5.3-4.2,8.7
	c0.9,1.1,1.7,0.9,1.9,2.4c0.2,1.3-0.6,2.1,0.4,3.3c1.4,1.8,4.4,2,6,3.8c3.6,3.9,4.7,9.3,6.9,13.9c1,2.2,3.8,4.8,6.3,3.5
	c2.9-1.5-0.8-4.7,1.4-6.3c1.9-1.3,4.8,1.4,7,0.3c2.6-1.4,2.9-4.7,2.9-7.4c0-1.2-0.2-2.6,0-3.8c0.2-1.4,1.2-2.2,1.5-3.5
	c0.3-1.2,0-2.2-0.6-3.2c-0.9-1.7-1.2-0.8-2.6-1.6c-1.5-0.9-1.8-4-0.9-5.7c1.7,0,6,0.3,5.4-2.9c-0.5-2.5-6.2-2.8-4.6,0.7
	c-1.2,1.7-2,0.4-3.4,0.1c-1.3-0.3-2.2-0.3-3.4,0.5c-1.7-1.8,1.4-4.6,2.7-5.8c0.8-0.7,2.2-1.2,2.6-2.2c0.4-1.1-0.9-2.4-0.5-3.7
	c3.2-0.7,4.5-3.3,1.8-5.7c-2-1.7-5.2-0.1-7.2,1.2c-1.1-4,6.4-3.1,5.6-7c-3.3-0.3-8.2,0.1-9.5,3.8c1,0.6,2.3,1.4,3.4,1.3
	c1.8,3.3-3.3,4.3-5.1,1.9c-1.1-1.3,0.1-2.9-0.8-4c-1.5-1.9-2.1,0.9-3.2,1.5c-1.7,0.8-2.3-1.5-3.9-0.7c-1.4,0.6-1.3,2.8-0.7,3.9
	c0.5,0.9,2.3,1.8,2.3,2.9c-0.1,1.8-2.5,0.1-3.1-0.7L529.6,218.1z"/>
<path fill="#000000"    d="M563.2,223.9c-0.7-1.1,1-3.8,0.3-5.5
	c-0.5-1.3-2.7-1.7-2.2-3.4c1.5-0.8,4,0.7,4.4-1c0.4-1.7-2-3.1-0.6-5.1c0.5-0.7,3.3-2.3,4.1-2.3c1.6,0,3.1,2.4,3.9-0.6
	c4.1-0.4,5.9,3.1,8.8,5c1-2.7,4.2-2,6.5-1.6c2.6,0.4,4.8,0.1,4.3,3.5c-0.6,4.7-4.7,8.6-5.4,13.5c-0.7,4.7-3.4,9.5-8.9,7.3
	c-1.8-0.7-4.8-1.9-5.9,0.7c-0.7,1.5,0.1,1.7,0.8,2.8c0.7,1.2,1.1,1.7,0.9,3.3c-0.2,1.6-1,3.3-1.7,4.8c-0.5,1.1-0.8,3.2-1.7,3.9
	c-1,0.8-3.4,0.7-4.3,0c-2-1.4-0.7-2.3-0.1-3.9c1.4-3.7-1.7-6-3.6-8.7c-1.1-1.5-1.2-3.1-0.9-5c0.1-0.9,0.7-4.3,1.2-4.9L563.2,223.9
	L563.2,223.9z"/>
<path fill="#000000"    d="M626.8,329.8c-0.7-1-2.1-3.8-1.9-5.1
	c0.2-1.4,2.1-3.5,3.8-2.8c2.1,0.8,1.1,4.2,0.7,5.7c-0.2,0.9-0.2,1.9-0.5,2.8c-0.2,0.7-0.9,2.6-0.6,2
	C628.7,331.7,627.2,330.4,626.8,329.8z"/>
<path fill="#000000"    d="M668.1,384.5c-2.2-1-3.5-2.8-5.4-4.2
	c-2.2-1.7-4.3,0.5-6.1-1.9c-1.1-1.4-2.6-5.1-4.5-1.8c-1,1.7-0.4,6.4-2.9,2.5c-1.2-1.9-5.1-11.8-7.8-11.1c-3.2,0.8-1,11.8-0.6,14.1
	c0.6,3.4,0.2,6.8-0.3,10.2c-0.3,1.7-0.3,3.4-0.3,5.1c0,2-0.5,2.7,0.6,4.2c1.1,1.4,1.6,1,0.4,2.9c-0.8,1.3-1.6,2.6-2.6,3.8
	c-1.8,2.2-4.6,5.1-3.9,8.3c1.6,1.1,4.7-1.2,6.3-1.9c1.5-0.7,4.3-2.6,5.9-2.4c4.6,0.4-0.7,11.7,5.4,11.1c1.4-0.1,4.5-2.1,5.4-3.3
	c1.4-1.9,0.2-4.7,1.6-6.7c1.3-1.9,3.8-2,5-3.7c1.4-2.1,0.1-5.4,1.1-7.8c0.7-1.6,3.2-5.2,4.5-2.7c0.6,1.1-0.6,2.4,0.7,3.1
	c0.9,0.5,2.6-0.4,3.8,0.1c0.6,0.2,2.1,1,2.3,1.5c0.5,1.3-1,1.8,0.6,3c1,0.7,2.5,0.6,3.5,0.9c1.2,0.3,2.3,1,3.5,1.2
	c2.8,0.5,4.9,0.4,6.3-1.8c1.1-1.8,3.6-3.4,4.3-5.4c0.5-1.5,0.4-1.6-1-3c-0.8-0.8-1.8-1.6-2.9-1.9c-2.5-0.7-4.2,1.3-6.5,2.2
	c-0.9,0.3-3.6,0.8-4.3,0c-1.2-1.3,0.5-2.7,1.8-2.6c0.4-2-2.7-5.4-3.9-6.9c-2-2.5-4.8-3.6-7.9-3.6L668.1,384.5z"/>
<path fill="#000000"    d="M650.5,372.3c-1.6-1.2-4.9-3.9-4.5-6.4
	c0.5-2.7,3-0.1,4.2,1c0.9,0.8,3.7,3.2,3.9,4.5c0.4,2.2-2.8,2.7-4.2,1.2c-0.1-0.2,0-0.4,0.3-0.6L650.5,372.3z"/>
<path fill="#000000"    d="M657.2,369.1c-1.6-1-6.7-5.3-2.2-5.4
	c1.5-0.1,2.4,0.9,3.5,1.7c1.6,1.1,5.9,3.5,5.4,5.9c-1.5,0-2.6,0.8-4.1,0c-0.1-0.2-0.1-0.4-0.1-0.6L657.2,369.1z"/>
<path fill="#000000"    d="M712.3,401.9c-0.3,0-0.8,0.4-0.3,0.5
	c4,1.1,8.4-3.6,10.2,1.6c0.7,2.1-0.5,5-3.2,4.5c-1.8-0.4-1.9,1.3-4.7-3.7C713.9,404.3,712.9,401.9,712.3,401.9z"/>
<path fill="#000000"    d="M721.2,396.6c1.4-3.4,9.6,0.3,9.2,3.5
	c-3.4,1.9-5.6-1.5-8.3-2.5L721.2,396.6z"/>
<path fill="#000000"    d="M709.3,443c-2.1-1.5-4.9-4.8-6-7.1
	c-1.1-2.4,0.1-7.4,2.1-9.3c6.2-5.8,8.2,12.7,5.2,13.8L709.3,443z"/>
<path fill="#000000"    d="M679,436.3c0.7-1,0.5-2.6,1.7-3.8
	c1.3-1.3,2.3-1.4,3.1-3.3c0.9-2.3,2-6.7,0.7-9.2c-1.7-0.4-3.3,1.2-4.7,1.9c-1,0.5-2.3,1.1-3.3,1.5c-1.6,0.6-0.9,0.5-2.1-0.3
	c-0.9-0.6-0.7-1.8-2.1-1c-0.7,0.4-1,1.8-1.1,2.4c-0.5,2.1-0.3,4.1-1.4,6c-4-0.4,1.2,8.4,2.1,9.6c1.1-0.7,1.5-1.8,2.4-2.6
	c1-0.9,2.5-0.6,3.3-1.2H679z"/>
<path fill="#000000"    d="M823.2,429.6c0.4-1.6-0.5-5.8,1.9-5.8
	c2.3,0,3.9,3.3,3.5,5.2c-0.4,1.9-1.8,3.5-3.6,4.4c-1.1,0.5-1.2,1-2.3,0.2c-0.9-0.7-1.3-1.9-0.6-2.6L823.2,429.6z"/>
<path fill="#000000"    d="M839.5,394.7c1,1.4,3.7,2,5.4,2.6
	c2.1,0.9,3.7-0.5,2.7-3c-0.6-1.5-2.7-3.8-4.3-4.1c-1.3-0.2-4.7,1.3-4.1,2.8C839.4,393.5,839.3,394.4,839.5,394.7z"/>
<path fill="#000000"    d="M837.9,377.8c-0.1,0.2-0.5-0.2-0.5,0
	c-0.1,2.1,5-1.7,3-4.1c-1.5-1.8-5.7-0.2-4.7,1.8C836,376.2,838.2,377,837.9,377.8z"/>
<path fill="#000000"    d="M1034.3,567.8c-0.8-2.8-0.1-5.2-0.3-8
	c-0.2-2.3-1.1-4.3-1.8-6.5c-1.6-4.6-3.7-9.8-3.2-14.9c0.2-2.5,0.7-5.1,0.6-7.7c-0.1-1.3-0.3-2.3-0.3-3.5c0-1.4,0.8-2.6,1-3.8
	c0.5-3.2,3-11,7.3-10.6c2.4,0.2,2.4,2.3,0.9,3.8c-0.7,0.7-5.4,3-2.1,3.9c1.7,0.5,3.5-2.4,4.4,1c0.5,1.8,0.1,4.8-0.1,6.7
	c-0.4-0.1-0.7,0-1.2-0.2c-1.1,1.3,1.4,3.4,1.9,4.7c0.8,1.8,0.5,4.1,0.8,5.9c0.7,4,0.2,8.2,2.2,11.8c1.5,2.7,2.9,0.9,3.3-1.3
	c0.4-2.1-0.3-4.3,0.3-6.4c1.1-3.4,2,0.6,4.2-0.6c2-1.1,1.9-3.9,5-3.1c1.5,2.7-1.9,3.9-1.9,6.3c0,1.6,3.7,4.1,5.4,4.1
	c0.7-1.2,3.8-4.7,5.4-4.7c0.5,1,0.5,2.4,1.7,2.5c1.3,0.1,2.1-1.9,2.6-2.8c1.1-1.7,1.5-4.3,2.9-5.8c2.5-2.6,9.7-4.5,13-2.9
	c2.8,1.4,0.7,3.2,0.3,5.3c-0.1,0.9-0.2,2.6,1,3.2c1,0.4,2.3-0.5,3.6,0c0.9,0.3,1.8,1,2.2,2c0.4,1.3-0.7,2.8,1.2,2.2
	c1.5-0.5,3-3.8,3.6-5c0.5-1.2,0.3-4.7,2.5-3.2c0.1,2.8,1.8,5,0.4,7.9c-1,2-4.5,4.5-4.1,7c0.9,0.5,2.1,0.4,3.1,0.7
	c1.8,0.5,1.5,0.4,2,2.2c0.5,1.7,2.3,5.6,4.5,3.6c2.9-2.6-3-13,0.9-14.4c2.7-1,1.2,11.1,4.5,12.3c3,1.1,0.7-5.1,1.3-6.3
	c0.5-1,2.4-1.7,3.4-1.3c1.6,0.6,1.2,1.9,1.7,3.2c1.5,4.3,3,8.7,4.6,13c0.4,1.1,1.1,1.6,0.9,3c-0.2,1.1-1.3,1.7-1.8,2.6
	c-1.1,2-0.5,5.1-4.2,3.7c-3.4-1.3-1.3-4.3-2.3-6.7c-1.4-3.3-3.7,1.1-3.5,3.2c0.1,1.4,1.3,6.9-2.2,4.7c-1.7-1.1-2.3-4.9-2.7-6.6
	c-0.6-2.2-1.7-4-3.4-5.6c-1.3-1.2-3.4-4-5.1-4.1c-3.5-0.1-1.8,3.3-0.7,4.9c1.3,2,1.6,3.5,0.2,5.7c-0.5,0.7-1.5,1.2-1.9,2
	c-0.7,1.3,0,1.9,0.2,3.1c0.5,2.3,0.6,5.4,0,7.7c-0.6,2.3-2.1,3.9-4.2,5.1c-1.5,0.8-4.8,3-5.1,0.1c-0.3-3.2,4.4-5.3,4.1-8.9
	c-0.1-1.6-1.1-3.4-0.2-5.2c0.7-1.5,3.5-2.2,3.1-4.1c-2.3-0.2-2.9-0.1-5,1c-1.6,0.8-2.8,1.5-3.9,3.2c0.4,0.8,1.9,1.1,2.1,1.9
	c0.2,0.8-1.2,1.9-1.9,2.4c-2.4,1.7-3.9,1.8-4.7-1.2c-0.7-2.5-1.8-3.9-3.8-1.2c-1.3,1.9-2.4,3.8-3.7,5.7c-1.5,2.3-2.3,4-4.7,5.1
	c-2.1,1-4.2,1.8-6.5,2.5c-3.9,1.3-8.7,2.6-11.8,5.7c-2.7,2.7-4.9,9-9.5,7.7c-0.4-0.8-0.6-1.8-1-2.5c-0.5-0.8-1.4-1.2-1.9-1.8
	c-1.5-1.8-0.5-3.4,0.4-5.4c0.5-1,1.2-1.8,1.2-3c0-0.9-0.6-1.8-0.7-2.8c-0.1-1.8,2.4-3.6,1.9-5.1c-3.7-1.1-5.2,6.4-8.9,5.4
	c-2.1-0.6-0.9-2.8,0.6-3.6c1.4-0.8,3.5-0.3,4.3-2.1c1.4-3.3-3.8-7.2-0.9-10.2c0.9-0.9,3.9-0.7,3.8-2.6c-0.2-2.5-6.9-1.1-5.1-2.1
	c0.1-0.1,0.1,0.6,0.3,0.5C1035.2,569.8,1034.5,568.3,1034.3,567.8z"/>
<path fill="#000000"    d="M988.6,595c-5.4,0.9-11-1-16.6,0
	c-2.6,0.5-5.6,0.5-8,2c-1.1,0.7-1.8,1.5-2.9,2.1c-1.3,0.7-4.7,1.2-4,3.2c2.3,0.2,4.3-1,6.3-0.9c2,0.1,2.2,0.5,3.5,1.9
	c3.4,3.8,7.7,1.7,11.9,0.6c2.1-0.5,5.7,0.8,7.6-0.4c2.3-1.4,4.3-1.3,6.8-2.1c1.7-0.6,4.2-1,4.2-3.3c0-2.9-3-3.2-5.1-3.2L988.6,595
	L988.6,595z"/>
<path fill="#000000"    d="M1033.9,653.6c-2.1-1.7-3.4-2.5-3.1-5.5
	c0.4-5.3,0.2-10.7,0.6-16c0.2-2.1-0.2-6.4,3.1-4.7c1.7,0.8,3.1,3.4,3.8,5c0.5,1,0.9,2,1,3.2c0.1,0.8-0.5,3.5,0.1,4.1
	c1.2,1.3,5.2-1.9,6.6-2.2c1-0.2,2.6,0,3.5,0.3c1.7,0.6,1.6,1.1,1.9,2.9c0.5,2.5,0.4,4.4-1.2,6.5c-1.7,2.2-3.9,3.4-5.9,5.4
	c-1,1-3.8,4.3-4.8,3.8C1039.8,656.4,1036.1,655.3,1033.9,653.6z"/>
<path fill="#000000"    d="M988.6,658.6c-1-0.3,0.6,1.9,1.6,2.2
	c1.6,0.6,2.6,0.6,4.1,1.6c2,1.3,1.2,0.4,3-0.2c2.1-0.7,1.6,0.8,3.4,1.6c3,1.5,5.7-1.2,8.4-1.7c3.3-0.6,6.5-0.4,9.9-0.7
	c-1.1-2.9-2.7-4.4-1.2-7.6c1-2,4-4.6,3.4-7.1c-2.1-0.6-4.1,2-5.6,3.2c-2.3,1.9-4.5,3.1-7.1,4.4c-2.2,1.1-4.3,2.2-6.5,2.3
	c-3.2,0.2-4.1,0.5-4.8,3.7c-0.9-0.7-1.1-2.3-2.2-3.2c-1-0.9-2.6-1.1-3.1-2.6c-0.4-1.1,0.4-3.3-1.3-3.8c-1.7-0.4-2.1,2-2.3,3.2
	L988.6,658.6z"/>
<path fill="#000000"    d="M1009.7,627.3c-1-2.5,3.1-5.2,4.7-5.5
	c1.1-0.2,3.4,0.1,2.9,1.9c-0.2,1-2.4,1.5-3.1,2.4c-0.3,0.5-0.7,1.3-0.7,1.8c-0.1,1.5,0.2,1.1,1,1.9c1.2,1.2,2.2,1.2,0.7,3
	c-2.4,2.7-5.5,0.9-5.5-2.3C1009.7,629.7,1010,628,1009.7,627.3z"/>
<path fill="#000000"    d="M737.8,765.1c1.6,2,5.4,1,7.8,0.7
	c0.3,0,0.8-0.4,1.1-0.4c1.2,0,2,0.3,3.1,0.7c1.6,0.6,3.4,1.3,5.1,1.9c2.2,0.7,3,0.5,4.3-1.6c0.8-1.3,1.6-4,0-5.3
	c-1.2-1-1.2,0.1-2.3,0.1c-0.8,0-1.4-0.7-2.5-0.6c-1.9,0.2-3.7,0.9-5.8,0.9c-1,0-2.1-0.1-3,0.2c-1,0.4-0.8,1-2.2,1
	c-2.1,0.1-3.9-2.8-5.1-0.6C738.1,762.9,737.4,764.6,737.8,765.1z"/>
<path fill="#000000"    d="M741.7,537.1c-1.5,0.2-0.4,3-1.5,4.2
	c-1,1.1-2.6,1.3-3.9,1.8c-1,0.4-3.8,1.6-2,3c1.2,1,2.7-1,3.9-1c0.6,2-3.2,3.4-3.2,5.6c-0.1,3.6,3.7-1.5,5.1-1.1
	c0.3,0.6,0.5,1.4,0.4,2.1c3.1,0,4.9-5.2,5.8-7.1c0.4-0.9,3.3-2.5,1.8-4c-1.8-1.8-2.9,1.5-2.9,2.8c-0.9-0.5-1.2-3.5-1.2-4.4
	C743.9,538.2,742.4,537,741.7,537.1z"/>
<path fill="#000000"    d="M725.3,613.2c1.2-0.6,3.3-0.7,4.8-1
	c1.6-0.3,3.6-1.2,5.1-1c2.1,0.3,5.9,5,6.8,7c1.8,3.8-6.2,2.4-8.1,1.8c-2.2-0.7-9.5-1-9.5-4.2L725.3,613.2z"/>
</svg>
